<svg width="92" height="66" viewBox="0 0 92 66" fill="none" xmlns="http://www.w3.org/2000/svg">
<g clip-path="url(#clip0_480_1314)">
<rect x="0.5" width="91" height="65.8" rx="11.2" fill="white"/>
<path fill-rule="evenodd" clip-rule="evenodd" d="M0.5 0H39.5V30.7067H0.5V0Z" fill="#1A47B8"/>
<path fill-rule="evenodd" clip-rule="evenodd" d="M39.5 0V4.38667H91.5V0H39.5ZM39.5 8.77333V13.16H91.5V8.77333H39.5ZM39.5 17.5467V21.9333H91.5V17.5467H39.5ZM39.5 26.32V30.7067H91.5V26.32H39.5ZM0.5 35.0933V39.48H91.5V35.0933H0.5ZM0.5 43.8667V48.2533H91.5V43.8667H0.5ZM0.5 52.64V57.0267H91.5V52.64H0.5ZM0.5 61.4133V65.8H91.5V61.4133H0.5Z" fill="#F93939"/>
<path fill-rule="evenodd" clip-rule="evenodd" d="M4.83398 4.38672V8.77339H9.16732V4.38672H4.83398ZM13.5007 4.38672V8.77339H17.834V4.38672H13.5007ZM22.1673 4.38672V8.77339H26.5007V4.38672H22.1673ZM30.834 4.38672V8.77339H35.1673V4.38672H30.834ZM26.5007 8.77339V13.1601H30.834V8.77339H26.5007ZM17.834 8.77339V13.1601H22.1673V8.77339H17.834ZM9.16732 8.77339V13.1601H13.5007V8.77339H9.16732ZM4.83398 13.1601V17.5467H9.16732V13.1601H4.83398ZM13.5007 13.1601V17.5467H17.834V13.1601H13.5007ZM22.1673 13.1601V17.5467H26.5007V13.1601H22.1673ZM30.834 13.1601V17.5467H35.1673V13.1601H30.834ZM4.83398 21.9334V26.3201H9.16732V21.9334H4.83398ZM13.5007 21.9334V26.3201H17.834V21.9334H13.5007ZM22.1673 21.9334V26.3201H26.5007V21.9334H22.1673ZM30.834 21.9334V26.3201H35.1673V21.9334H30.834ZM26.5007 17.5467V21.9334H30.834V17.5467H26.5007ZM17.834 17.5467V21.9334H22.1673V17.5467H17.834ZM9.16732 17.5467V21.9334H13.5007V17.5467H9.16732Z" fill="white"/>
</g>
<defs>
<clipPath id="clip0_480_1314">
<rect x="0.5" width="91" height="65.8" rx="11.2" fill="white"/>
</clipPath>
</defs>
</svg>
