<svg width="92" height="66" viewBox="0 0 92 66" fill="none" xmlns="http://www.w3.org/2000/svg">
<g clip-path="url(#clip0_480_519)">
<rect x="0.5" width="91" height="65.8" rx="11.2" fill="#0A6A30"/>
<path d="M82.8333 0H9.16667C4.3802 0 0.5 3.92795 0.5 8.77333V57.0267C0.5 61.872 4.3802 65.8 9.16667 65.8H82.8333C87.6198 65.8 91.5 61.872 91.5 57.0267V8.77333C91.5 3.92795 87.6198 0 82.8333 0Z" fill="#0A6A30"/>
<path fill-rule="evenodd" clip-rule="evenodd" d="M69.7207 26.2059C69.4347 28.8204 68.62 30.7067 67.6667 30.7067C66.7133 30.7067 65.8987 28.8204 65.6127 26.2059C63.03 25.9164 61.1667 25.0917 61.1667 24.1267C61.1667 23.1616 63.03 22.3369 65.6127 22.0474C65.8987 19.4329 66.7133 17.5467 67.6667 17.5467C68.62 17.5467 69.4347 19.4329 69.7207 22.0474C72.3033 22.3369 74.1667 23.1616 74.1667 24.1267C74.1667 25.0917 72.3033 25.9164 69.7207 26.2059ZM0.5 0H26.5V65.8H0.5V0Z" fill="white"/>
<path fill-rule="evenodd" clip-rule="evenodd" d="M78.371 30.5663C78.4576 31.334 78.501 32.1104 78.501 32.9C78.501 43.8009 69.7693 52.64 59.001 52.64C48.2326 52.64 39.501 43.8009 39.501 32.9C39.501 21.9992 48.2326 13.16 59.001 13.16C59.781 13.16 60.548 13.2039 61.3063 13.2916C53.8876 14.3006 48.1676 20.7358 48.1676 28.5134C48.1676 36.9928 54.958 43.8667 63.3343 43.8667C71.0216 43.8667 77.3743 38.0763 78.371 30.5663Z" fill="white"/>
</g>
<defs>
<clipPath id="clip0_480_519">
<rect x="0.5" width="91" height="65.8" rx="11.2" fill="white"/>
</clipPath>
</defs>
</svg>
