<svg width="92" height="66" viewBox="0 0 92 66" fill="none" xmlns="http://www.w3.org/2000/svg">
<rect x="0.5" width="91" height="65.8" rx="11.2" fill="#249F58"/>
<path fill-rule="evenodd" clip-rule="evenodd" d="M46.001 8.77319L78.501 32.8999L46.001 57.0265L13.501 32.8999" fill="#FFDA2C"/>
<path d="M46.0007 48.2533C54.377 48.2533 61.1673 41.3794 61.1673 32.9C61.1673 24.4206 54.377 17.5466 46.0007 17.5466C37.6243 17.5466 30.834 24.4206 30.834 32.9C30.834 41.3794 37.6243 48.2533 46.0007 48.2533Z" fill="#1A47B8"/>
<path fill-rule="evenodd" clip-rule="evenodd" d="M39.501 39.48V43.8666H43.8343V39.48H39.501ZM48.1676 39.48V43.8666H52.501V39.48H48.1676Z" fill="white"/>
<path fill-rule="evenodd" clip-rule="evenodd" d="M35.167 26.3201C35.167 26.3201 44.9777 28.0747 52.0497 31.1366L61.167 35.0934" fill="white"/>
<path d="M35.167 26.3201C35.167 26.3201 44.9777 28.0747 52.0497 31.1366L61.167 35.0934" stroke="white" stroke-width="1.4"/>
</svg>
