<svg width="92" height="66" viewBox="0 0 92 66" fill="none" xmlns="http://www.w3.org/2000/svg">
<g clip-path="url(#clip0_480_1751)">
<rect x="0.5" width="91" height="65.8" rx="11.2" fill="#F93939"/>
<path d="M82.8333 0H9.16667C4.3802 0 0.5 3.92795 0.5 8.77333V57.0267C0.5 61.872 4.3802 65.8 9.16667 65.8H82.8333C87.6198 65.8 91.5 61.872 91.5 57.0267V8.77333C91.5 3.92795 87.6198 0 82.8333 0Z" fill="#F93939"/>
<path fill-rule="evenodd" clip-rule="evenodd" d="M24.3252 31.7156L17.9552 35.1065L19.1685 27.9256L14.0205 22.837L21.1402 21.7974L24.3252 15.2612L27.5058 21.7974L34.6255 22.837L29.4688 27.9256L30.6908 35.1021L24.3252 31.7156ZM39.5005 13.16H43.8338V17.5467H39.5005V13.16ZM43.8338 21.9334H48.1672V26.32H43.8338V21.9334ZM43.8338 30.7067H48.1672V35.0934H43.8338V30.7067ZM39.5005 39.48H43.8338V43.8667H39.5005V39.48Z" fill="#FFDA2C"/>
</g>
<defs>
<clipPath id="clip0_480_1751">
<rect x="0.5" width="91" height="65.8" rx="11.2" fill="white"/>
</clipPath>
</defs>
</svg>
