<svg width="92" height="66" viewBox="0 0 92 66" fill="none" xmlns="http://www.w3.org/2000/svg">
<g clip-path="url(#clip0_480_1319)">
<rect x="0.5" width="91" height="65.8" rx="11.2" fill="#1A47B8"/>
<path d="M82.8333 0H9.16667C4.3802 0 0.5 3.92795 0.5 8.77333V57.0267C0.5 61.872 4.3802 65.8 9.16667 65.8H82.8333C87.6198 65.8 91.5 61.872 91.5 57.0267V8.77333C91.5 3.92795 87.6198 0 82.8333 0Z" fill="#1A47B8"/>
<path opacity="0.5" fill-rule="evenodd" clip-rule="evenodd" d="M17.834 50.4466L22.1673 48.2532L24.334 43.8666L26.5007 48.2532L30.834 50.4466L26.5007 52.6399L24.334 57.0266L22.1673 52.6399L17.834 50.4466ZM61.1673 13.1599V17.5466H65.5007V13.1599H61.1673ZM74.1673 17.5466V21.9332H78.5007V17.5466H74.1673ZM56.834 26.3199V30.7066H61.1673V26.3199H56.834ZM69.834 30.7066V35.0932H74.1673V30.7066H69.834ZM65.5007 43.8666V48.2532H69.834V43.8666H65.5007Z" fill="white"/>
<path d="M39.5007 4.38672H9.16732C6.77408 4.38672 4.83398 6.3507 4.83398 8.77339V30.7067C4.83398 33.1294 6.77408 35.0934 9.16732 35.0934H39.5007C41.8939 35.0934 43.834 33.1294 43.834 30.7067V8.77339C43.834 6.3507 41.8939 4.38672 39.5007 4.38672Z" fill="white"/>
<path fill-rule="evenodd" clip-rule="evenodd" d="M22.167 21.9332H9.16699V17.5465H22.167V8.77319H26.5003V17.5465H39.5003V21.9332H26.5003V30.7065H22.167V21.9332ZM33.0003 26.3199V30.7065H39.5003V26.3199H33.0003ZM33.0003 8.77319V13.1599H39.5003V8.77319H33.0003ZM9.16699 26.3199V30.7065H15.667V26.3199H9.16699ZM9.16699 8.77319V13.1599H15.667V8.77319H9.16699Z" fill="#F93939"/>
</g>
<defs>
<clipPath id="clip0_480_1319">
<rect x="0.5" width="91" height="65.8" rx="11.2" fill="white"/>
</clipPath>
</defs>
</svg>
