<svg width="92" height="66" viewBox="0 0 92 66" fill="none" xmlns="http://www.w3.org/2000/svg">
<g clip-path="url(#clip0_480_3138)">
<rect x="0.5" width="91" height="65.8" rx="11.2" fill="#1A47B8"/>
<path fill-rule="evenodd" clip-rule="evenodd" d="M10.1805 0H0.5V10.9667L81.7669 65.8L91.5 65.8V54.8333L10.1805 0Z" fill="white"/>
<path d="M3.72876 0L91.5 59.3754V65.8H88.3469L0.5 6.36312V0H3.72876Z" fill="#F93939"/>
<path fill-rule="evenodd" clip-rule="evenodd" d="M82.8333 0H91.5V10.9667C91.5 10.9667 35.2092 47.4991 9.16667 65.8H0.5V54.8333L82.8333 0Z" fill="white"/>
<path d="M91.5 0H88.561L0.5 59.4266V65.8H3.72876L91.5 6.41117V0Z" fill="#F93939"/>
<path fill-rule="evenodd" clip-rule="evenodd" d="M33.594 0H58.4817V20.2963H91.5V45.4903H58.4817V65.8H33.594V45.4903H0.5V20.2963H33.594V0Z" fill="white"/>
<path fill-rule="evenodd" clip-rule="evenodd" d="M38.8158 0H53.1842V25.3077H91.5V40.4923H53.1842V65.8H38.8158V40.4923H0.5V25.3077H38.8158V0Z" fill="#F93939"/>
</g>
<defs>
<clipPath id="clip0_480_3138">
<rect x="0.5" width="91" height="65.8" rx="11.2" fill="white"/>
</clipPath>
</defs>
</svg>
