<svg width="92" height="66" viewBox="0 0 92 66" fill="none" xmlns="http://www.w3.org/2000/svg">
<g clip-path="url(#clip0_480_5454)">
<rect x="0.5" width="91" height="65.8" rx="11.2" fill="white"/>
<path fill-rule="evenodd" clip-rule="evenodd" d="M0.5 43.8667H91.5V65.8H0.5V43.8667Z" fill="#249F58"/>
<path fill-rule="evenodd" clip-rule="evenodd" d="M46.0003 43.8666C51.9803 43.8666 56.8337 38.9535 56.8337 32.8999C56.8337 26.8463 51.9803 21.9332 46.0003 21.9332C40.0203 21.9332 35.167 26.8463 35.167 32.8999C35.167 38.9535 40.0203 43.8666 46.0003 43.8666ZM46.0003 39.4799C49.5883 39.4799 52.5003 36.5321 52.5003 32.8999C52.5003 29.2677 49.5883 26.3199 46.0003 26.3199C42.4123 26.3199 39.5003 29.2677 39.5003 32.8999C39.5003 36.5321 42.4123 39.4799 46.0003 39.4799Z" fill="#1A47B8"/>
<path d="M45.9997 35.0933C47.1963 35.0933 48.1663 34.1113 48.1663 32.9C48.1663 31.6887 47.1963 30.7067 45.9997 30.7067C44.8031 30.7067 43.833 31.6887 43.833 32.9C43.833 34.1113 44.8031 35.0933 45.9997 35.0933Z" fill="#1A47B8"/>
<path fill-rule="evenodd" clip-rule="evenodd" d="M0.5 0H91.5V21.9333H0.5V0Z" fill="#FF6C2D"/>
</g>
<defs>
<clipPath id="clip0_480_5454">
<rect x="0.5" width="91" height="65.8" rx="11.2" fill="white"/>
</clipPath>
</defs>
</svg>
