<svg width="92" height="66" viewBox="0 0 92 66" fill="none" xmlns="http://www.w3.org/2000/svg">
<rect x="0.5" width="91" height="65.8" rx="11.2" fill="#F93939"/>
<path fill-rule="evenodd" clip-rule="evenodd" d="M61.176 37.9535L56.1406 40.6293L57.1026 34.9574L53.0293 30.9348L58.6626 30.1013L61.176 24.9426L63.6893 30.1057L69.3226 30.9392L65.2493 34.953L66.2113 40.625" fill="white"/>
<path fill-rule="evenodd" clip-rule="evenodd" d="M41.6667 48.2533C50.043 48.2533 56.8333 41.3794 56.8333 32.9C56.8333 24.4205 50.043 17.5466 41.6667 17.5466C33.2903 17.5466 26.5 24.4205 26.5 32.9C26.5 41.3794 33.2903 48.2533 41.6667 48.2533ZM46 43.8666C51.98 43.8666 56.8333 38.9536 56.8333 32.9C56.8333 26.8464 51.98 21.9333 46 21.9333C40.02 21.9333 35.1667 26.8464 35.1667 32.9C35.1667 38.9536 40.02 43.8666 46 43.8666Z" fill="white"/>
</svg>
