<svg width="30" height="30" viewBox="0 0 30 30" fill="none" xmlns="http://www.w3.org/2000/svg">
<path d="M25 27C25 28.1046 25.8954 29 27 29C28.1046 29 29 28.1046 29 27C29 25.8954 28.1046 25 27 25C25.8954 25 25 25.8954 25 27Z" stroke="white" stroke-width="2" stroke-linecap="round" stroke-linejoin="round"/>
<path d="M13 27C13 28.1046 13.8954 29 15 29C16.1046 29 17 28.1046 17 27C17 25.8954 16.1046 25 15 25C13.8954 25 13 25.8954 13 27Z" stroke="white" stroke-width="2" stroke-linecap="round" stroke-linejoin="round"/>
<path d="M1 27C1 28.1046 1.89543 29 3 29C4.10457 29 5 28.1046 5 27C5 25.8954 4.10457 25 3 25C1.89543 25 1 25.8954 1 27Z" stroke="white" stroke-width="2" stroke-linecap="round" stroke-linejoin="round"/>
<path d="M25 15C25 16.1046 25.8954 17 27 17C28.1046 17 29 16.1046 29 15C29 13.8954 28.1046 13 27 13C25.8954 13 25 13.8954 25 15Z" stroke="white" stroke-width="2" stroke-linecap="round" stroke-linejoin="round"/>
<path d="M13 15C13 16.1046 13.8954 17 15 17C16.1046 17 17 16.1046 17 15C17 13.8954 16.1046 13 15 13C13.8954 13 13 13.8954 13 15Z" stroke="white" stroke-width="2" stroke-linecap="round" stroke-linejoin="round"/>
<path d="M1 15C1 16.1046 1.89543 17 3 17C4.10457 17 5 16.1046 5 15C5 13.8954 4.10457 13 3 13C1.89543 13 1 13.8954 1 15Z" stroke="white" stroke-width="2" stroke-linecap="round" stroke-linejoin="round"/>
<path d="M25 3C25 4.10457 25.8954 5 27 5C28.1046 5 29 4.10457 29 3C29 1.89543 28.1046 1 27 1C25.8954 1 25 1.89543 25 3Z" stroke="white" stroke-width="2" stroke-linecap="round" stroke-linejoin="round"/>
<path d="M13 3C13 4.10457 13.8954 5 15 5C16.1046 5 17 4.10457 17 3C17 1.89543 16.1046 1 15 1C13.8954 1 13 1.89543 13 3Z" stroke="white" stroke-width="2" stroke-linecap="round" stroke-linejoin="round"/>
<path d="M1 3C1 4.10457 1.89543 5 3 5C4.10457 5 5 4.10457 5 3C5 1.89543 4.10457 1 3 1C1.89543 1 1 1.89543 1 3Z" stroke="white" stroke-width="2" stroke-linecap="round" stroke-linejoin="round"/>
</svg>
