<svg width="65" height="51" viewBox="0 0 65 51" fill="none" xmlns="http://www.w3.org/2000/svg">
<path d="M19.9416 18.3662H25.0929V19.3202H23.0663V24.7062H21.9482V19.3202H19.9316L19.9416 18.3662ZM24.8732 20.1152H25.8216V20.9996H25.8416C25.8715 20.8704 25.9314 20.7512 26.0213 20.6419C26.1111 20.5326 26.211 20.4133 26.3308 20.3239C26.4506 20.2245 26.5903 20.145 26.7401 20.0854C26.8898 20.0257 27.0396 19.9959 27.1893 19.9959C27.3091 19.9959 27.389 19.9959 27.4389 20.0059C27.4888 20.0059 27.5287 20.0158 27.5786 20.0257V20.9996C27.5088 20.9897 27.4389 20.9797 27.359 20.9698C27.2792 20.9599 27.2093 20.9599 27.1394 20.9599C26.9697 20.9599 26.8099 20.9996 26.6502 21.0592C26.5005 21.1288 26.3707 21.2282 26.2509 21.3574C26.1411 21.4965 26.0512 21.6555 25.9814 21.8542C25.9115 22.053 25.8815 22.2716 25.8815 22.53V24.7162H24.8732V20.1152ZM32.2507 24.7062H31.2524V24.0702H31.2324C31.1027 24.2988 30.923 24.4876 30.6734 24.6267C30.4238 24.7659 30.1742 24.8354 29.9147 24.8354C29.3057 24.8354 28.8665 24.6864 28.5969 24.3882C28.3274 24.0901 28.1876 23.633 28.1876 23.0368V20.1251H29.2059V22.9374C29.2059 23.3448 29.2857 23.6231 29.4355 23.792C29.5852 23.9609 29.8049 24.0404 30.0844 24.0404C30.304 24.0404 30.4737 24.0106 30.6235 23.9411C30.7632 23.8715 30.883 23.792 30.9729 23.6728C31.0627 23.5634 31.1226 23.4343 31.1626 23.2753C31.2025 23.1163 31.2224 22.9573 31.2224 22.7784V20.1152H32.2407V24.7062H32.2507ZM33.9778 23.2355C34.0077 23.5336 34.1175 23.7324 34.3172 23.8616C34.5169 23.9808 34.7465 24.0404 35.026 24.0404C35.1158 24.0404 35.2256 24.0305 35.3454 24.0206C35.4652 24.0106 35.585 23.9709 35.6849 23.9311C35.7947 23.8914 35.8745 23.8318 35.9544 23.7523C36.0243 23.6728 36.0542 23.5734 36.0443 23.4343C36.0443 23.3051 35.9943 23.1958 35.9045 23.1163C35.8146 23.0268 35.7048 22.9672 35.5651 22.9175C35.4253 22.8678 35.2656 22.8281 35.0859 22.7883C34.9062 22.7486 34.7265 22.7088 34.5468 22.6691C34.3571 22.6293 34.1774 22.5796 33.9977 22.52C33.818 22.4604 33.6683 22.3809 33.5285 22.2815C33.3888 22.1822 33.279 22.053 33.1991 21.894C33.1092 21.735 33.0693 21.5462 33.0693 21.3077C33.0693 21.0592 33.1292 20.8505 33.249 20.6816C33.3688 20.5127 33.5285 20.3736 33.7082 20.2742C33.8979 20.1748 34.1075 20.0953 34.3372 20.0556C34.5668 20.0158 34.7864 19.9959 34.996 19.9959C35.2356 19.9959 35.4652 20.0257 35.6749 20.0754C35.8945 20.1251 36.0842 20.2046 36.2639 20.3239C36.4436 20.4332 36.5833 20.5822 36.7031 20.7611C36.8229 20.94 36.8928 21.1586 36.9228 21.417H35.8546C35.8047 21.1785 35.6948 21.0095 35.5251 20.93C35.3454 20.8406 35.1458 20.8009 34.9262 20.8009C34.8563 20.8009 34.7664 20.8009 34.6666 20.8207C34.5668 20.8307 34.4769 20.8605 34.3871 20.8903C34.2972 20.9201 34.2273 20.9698 34.1674 21.0294C34.1075 21.089 34.0776 21.1685 34.0776 21.2779C34.0776 21.407 34.1275 21.5064 34.2074 21.576C34.2972 21.6555 34.407 21.7151 34.5468 21.7648C34.6866 21.8145 34.8463 21.8542 35.026 21.894C35.2057 21.9337 35.3854 21.9735 35.5751 22.0132C35.7547 22.053 35.9344 22.1027 36.1141 22.1623C36.2938 22.2219 36.4536 22.3014 36.5933 22.4008C36.7331 22.5001 36.8429 22.6293 36.9327 22.7784C37.0226 22.9275 37.0625 23.1262 37.0625 23.3448C37.0625 23.6131 37.0026 23.8417 36.8728 24.0404C36.7431 24.2292 36.5833 24.3882 36.3837 24.4976C36.184 24.6168 35.9644 24.7062 35.7148 24.7559C35.4652 24.8056 35.2256 24.8354 34.996 24.8354C34.7065 24.8354 34.437 24.8056 34.1874 24.7361C33.9378 24.6665 33.7282 24.5671 33.5485 24.4379C33.3688 24.2988 33.229 24.1398 33.1192 23.9411C33.0194 23.7423 32.9595 23.5038 32.9495 23.2355H33.9778ZM37.3321 20.1152H38.1008V18.7339H39.119V20.1152H40.0375V20.8704H39.119V23.3249C39.119 23.4343 39.119 23.5237 39.129 23.6032C39.139 23.6827 39.159 23.7423 39.1889 23.8019C39.2189 23.8616 39.2688 23.8914 39.3387 23.9212C39.4085 23.951 39.4884 23.9609 39.6082 23.9609C39.6781 23.9609 39.748 23.9609 39.8278 23.9609C39.8977 23.9609 39.9676 23.951 40.0474 23.9311V24.7162C39.9376 24.7261 39.8178 24.7361 39.718 24.7559C39.6082 24.7659 39.4984 24.7758 39.3886 24.7758C39.119 24.7758 38.8994 24.746 38.7397 24.6963C38.5799 24.6466 38.4502 24.5671 38.3603 24.4677C38.2705 24.3684 38.2106 24.2491 38.1706 24.1001C38.1407 23.951 38.1207 23.7821 38.1107 23.5933V20.8903H37.342L37.3321 20.1152ZM40.7562 20.1152H41.7146V20.7412H41.7346C41.8743 20.4729 42.074 20.2841 42.3336 20.1649C42.5931 20.0456 42.8627 19.986 43.1622 19.986C43.5215 19.986 43.841 20.0456 44.1105 20.1748C44.3801 20.304 44.6097 20.4729 44.7894 20.7015C44.9691 20.93 45.0989 21.1884 45.1887 21.4766C45.2786 21.7747 45.3285 22.0927 45.3285 22.4206C45.3285 22.7287 45.2885 23.0268 45.2087 23.315C45.1288 23.6032 45.009 23.8616 44.8493 24.0802C44.6896 24.3087 44.4799 24.4777 44.2303 24.6168C43.9808 24.7559 43.6913 24.8156 43.3419 24.8156C43.1921 24.8156 43.0424 24.8056 42.8926 24.7758C42.7429 24.746 42.6031 24.7062 42.4633 24.6466C42.3236 24.587 42.1938 24.5075 42.084 24.4181C41.9642 24.3286 41.8743 24.2193 41.7945 24.1001H41.7745V26.3956H40.7562V20.1152ZM44.3002 22.4107C44.3002 22.202 44.2703 22.0033 44.2204 21.8045C44.1704 21.6058 44.0806 21.4369 43.9808 21.2878C43.8809 21.1387 43.7412 21.0195 43.5814 20.93C43.4217 20.8406 43.232 20.7909 43.0324 20.7909C42.6031 20.7909 42.2836 20.94 42.064 21.2381C41.8444 21.5362 41.7446 21.9238 41.7446 22.4206C41.7446 22.6492 41.7745 22.8678 41.8344 23.0666C41.8943 23.2653 41.9742 23.4343 42.094 23.5734C42.2038 23.7125 42.3435 23.8318 42.5033 23.9113C42.663 24.0007 42.8427 24.0404 43.0523 24.0404C43.282 24.0404 43.4816 23.9908 43.6413 23.9013C43.8011 23.8119 43.9308 23.6827 44.0407 23.5336C44.1405 23.3846 44.2204 23.2156 44.2703 23.0169C44.2803 22.8082 44.3002 22.6095 44.3002 22.4107ZM46.0972 18.3662H47.1154V19.3202H46.0972V18.3662ZM46.0972 20.1152H47.1154V24.7062H46.0972V20.1152ZM48.0239 18.3662H49.0422V24.7062H48.0239V18.3662ZM52.1469 24.8255C51.7775 24.8255 51.4481 24.7659 51.1586 24.6466C50.8691 24.5274 50.6295 24.3584 50.4298 24.1497C50.2301 23.9311 50.0804 23.6827 49.9806 23.3846C49.8807 23.0865 49.8208 22.7585 49.8208 22.4107C49.8208 22.0629 49.8708 21.735 49.9806 21.4468C50.0804 21.1487 50.2401 20.9002 50.4298 20.6816C50.6195 20.463 50.879 20.304 51.1586 20.1847C51.4481 20.0655 51.7775 20.0059 52.1469 20.0059C52.5163 20.0059 52.8457 20.0655 53.1352 20.1847C53.4247 20.304 53.6643 20.4729 53.864 20.6816C54.0636 20.9002 54.2134 21.1487 54.3132 21.4468C54.413 21.7449 54.4729 22.0629 54.4729 22.4107C54.4729 22.7685 54.423 23.0865 54.3132 23.3846C54.2134 23.6827 54.0536 23.9311 53.864 24.1497C53.6743 24.3684 53.4147 24.5274 53.1352 24.6466C52.8457 24.7659 52.5163 24.8255 52.1469 24.8255ZM52.1469 24.0305C52.3765 24.0305 52.5662 23.9808 52.7359 23.8914C52.9056 23.8019 53.0354 23.6728 53.1452 23.5237C53.255 23.3746 53.3249 23.1958 53.3848 23.007C53.4347 22.8181 53.4646 22.6194 53.4646 22.4206C53.4646 22.2219 53.4347 22.0331 53.3848 21.8343C53.3349 21.6356 53.255 21.4667 53.1452 21.3176C53.0354 21.1685 52.9056 21.0493 52.7359 20.9499C52.5662 20.8605 52.3765 20.8108 52.1469 20.8108C51.9173 20.8108 51.7276 20.8605 51.5579 20.9499C51.3882 21.0394 51.2584 21.1685 51.1486 21.3176C51.0388 21.4667 50.9689 21.6356 50.909 21.8343C50.8591 22.0331 50.8291 22.2219 50.8291 22.4206C50.8291 22.6194 50.8591 22.8181 50.909 23.007C50.9589 23.1958 51.0388 23.3746 51.1486 23.5237C51.2584 23.6728 51.3882 23.8019 51.5579 23.8914C51.7276 23.9808 51.9273 24.0305 52.1469 24.0305ZM54.7724 20.1152H55.5411V18.7339H56.5594V20.1152H57.4778V20.8704H56.5594V23.3249C56.5594 23.4343 56.5594 23.5237 56.5694 23.6032C56.5794 23.6827 56.5993 23.7423 56.6293 23.8019C56.6592 23.8616 56.7091 23.8914 56.779 23.9212C56.8489 23.951 56.9288 23.9609 57.0486 23.9609C57.1184 23.9609 57.1883 23.9609 57.2682 23.9609C57.3381 23.9609 57.4079 23.951 57.4878 23.9311V24.7162C57.378 24.7261 57.2582 24.7361 57.1584 24.7559C57.0486 24.7659 56.9387 24.7758 56.8289 24.7758C56.5594 24.7758 56.3398 24.746 56.18 24.6963C56.0203 24.6466 55.8905 24.5671 55.8007 24.4677C55.7108 24.3684 55.6509 24.2491 55.611 24.1001C55.581 23.951 55.5611 23.7821 55.5511 23.5933V20.8903H54.7824L54.7724 20.1152Z" fill="white"/>
<path d="M18.7537 18.3658H14.1016L12.6641 13.9536L11.2165 18.3658L6.56445 18.3559L10.3281 21.0886L8.8905 25.4909L12.6641 22.768L16.4277 25.4909L14.9901 21.0886L18.7537 18.3658Z" fill="#00B67A"/>
<path d="M15.3095 22.0829L14.9901 21.0889L12.6641 22.7688L15.3095 22.0829Z" fill="#005128"/>
<path d="M16.1082 28.3032H6.56445V37.8033H16.1082V28.3032Z" fill="#00B67A"/>
<path d="M26.4403 28.3032H16.8965V37.8033H26.4403V28.3032Z" fill="#00B67A"/>
<path d="M36.783 28.3032H27.2393V37.8033H36.783V28.3032Z" fill="#00B67A"/>
<path d="M47.1258 28.3032H37.582V37.8033H47.1258V28.3032Z" fill="#00B67A"/>
<path d="M57.4676 28.3032H47.9238V37.8033H57.4676V28.3032Z" fill="#DCDCE6"/>
<path d="M47.9238 28.3032H57.4776L57.4377 37.8033H47.9238V28.3032Z" fill="#00B67A"/>
<path d="M11.3365 34.7031L12.784 34.3354L13.393 36.1937L11.3365 34.7031ZM14.6708 32.2982H12.1152L11.3265 29.9033L10.5379 32.2982H7.99219L10.0587 33.7789L9.27002 36.1738L11.3365 34.6931L12.6043 33.7789L14.6708 32.2982Z" fill="white"/>
<path d="M21.6793 34.7031L23.1268 34.3354L23.7358 36.1937L21.6793 34.7031ZM25.0136 32.2982H22.458L21.6793 29.9033L20.8906 32.2982H18.335L20.4014 33.7789L19.6128 36.1738L21.6793 34.6931L22.9471 33.7789L25.0136 32.2982Z" fill="white"/>
<path d="M32.0213 34.7031L33.4688 34.3354L34.0778 36.1937L32.0213 34.7031ZM35.3556 32.2982H32.8L32.0113 29.9033L31.2226 32.2982H28.667L30.7335 33.7789L29.9448 36.1738L32.0113 34.6931L33.2891 33.7789L35.3556 32.2982Z" fill="white"/>
<path d="M42.3541 34.7031L43.8016 34.3354L44.4106 36.1937L42.3541 34.7031ZM45.6984 32.2982H43.1427L42.3541 29.9033L41.5654 32.2982H39.0098L41.0763 33.7789L40.2876 36.1738L42.3541 34.6931L43.6319 33.7789L45.6984 32.2982Z" fill="white"/>
<path d="M52.6959 34.7031L54.1434 34.3354L54.7524 36.1937L52.6959 34.7031ZM56.0402 32.2982H53.4845L52.6959 29.9033L51.9072 32.2982H49.3516L51.4181 33.7789L50.6294 36.1738L52.6959 34.6931L53.9737 33.7789L56.0402 32.2982Z" fill="white"/>
</svg>
