<svg width="47" height="47" viewBox="0 0 47 47" fill="none" xmlns="http://www.w3.org/2000/svg">
<rect x="0.391797" y="0.3625" width="45.675" height="45.675" rx="12.4375" fill="#2E7AF5"/>
<rect x="0.391797" y="0.3625" width="45.675" height="45.675" rx="12.4375" stroke="url(#paint0_linear_580_6771)" stroke-width="0.725"/>
<g clip-path="url(#clip0_580_6771)">
<path d="M23.2285 13.3611C26.4348 13.3611 26.8145 13.3752 28.0754 13.4314C29.2473 13.483 29.8801 13.6799 30.302 13.8439C30.8598 14.0596 31.2629 14.3221 31.6801 14.7393C32.102 15.1611 32.3598 15.5596 32.5754 16.1174C32.7395 16.5393 32.9363 17.1768 32.9879 18.3439C33.0441 19.6096 33.0582 19.9893 33.0582 23.1908C33.0582 26.3971 33.0441 26.7768 32.9879 28.0377C32.9363 29.2096 32.7395 29.8424 32.5754 30.2643C32.3598 30.8221 32.0973 31.2252 31.6801 31.6424C31.2582 32.0643 30.8598 32.3221 30.302 32.5377C29.8801 32.7018 29.2426 32.8986 28.0754 32.9502C26.8098 33.0064 26.4301 33.0205 23.2285 33.0205C20.0223 33.0205 19.6426 33.0064 18.3816 32.9502C17.2098 32.8986 16.577 32.7018 16.1551 32.5377C15.5973 32.3221 15.1941 32.0596 14.777 31.6424C14.3551 31.2205 14.0973 30.8221 13.8816 30.2643C13.7176 29.8424 13.5207 29.2049 13.4691 28.0377C13.4129 26.7721 13.3988 26.3924 13.3988 23.1908C13.3988 19.9846 13.4129 19.6049 13.4691 18.3439C13.5207 17.1721 13.7176 16.5393 13.8816 16.1174C14.0973 15.5596 14.3598 15.1564 14.777 14.7393C15.1988 14.3174 15.5973 14.0596 16.1551 13.8439C16.577 13.6799 17.2145 13.483 18.3816 13.4314C19.6426 13.3752 20.0223 13.3611 23.2285 13.3611ZM23.2285 11.2002C19.9707 11.2002 19.5629 11.2143 18.2832 11.2705C17.0082 11.3268 16.1316 11.533 15.3723 11.8283C14.5801 12.1377 13.9098 12.5455 13.2441 13.2158C12.5738 13.8814 12.166 14.5518 11.8566 15.3393C11.5613 16.1033 11.3551 16.9752 11.2988 18.2502C11.2426 19.5346 11.2285 19.9424 11.2285 23.2002C11.2285 26.458 11.2426 26.8658 11.2988 28.1455C11.3551 29.4205 11.5613 30.2971 11.8566 31.0564C12.166 31.8486 12.5738 32.5189 13.2441 33.1846C13.9098 33.8502 14.5801 34.2627 15.3676 34.5674C16.1316 34.8627 17.0035 35.0689 18.2785 35.1252C19.5582 35.1814 19.966 35.1955 23.2238 35.1955C26.4816 35.1955 26.8895 35.1814 28.1691 35.1252C29.4441 35.0689 30.3207 34.8627 31.0801 34.5674C31.8676 34.2627 32.5379 33.8502 33.2035 33.1846C33.8691 32.5189 34.2816 31.8486 34.5863 31.0611C34.8816 30.2971 35.0879 29.4252 35.1441 28.1502C35.2004 26.8705 35.2145 26.4627 35.2145 23.2049C35.2145 19.9471 35.2004 19.5393 35.1441 18.2596C35.0879 16.9846 34.8816 16.108 34.5863 15.3486C34.291 14.5518 33.8832 13.8814 33.2129 13.2158C32.5473 12.5502 31.877 12.1377 31.0895 11.833C30.3254 11.5377 29.4535 11.3314 28.1785 11.2752C26.8941 11.2143 26.4863 11.2002 23.2285 11.2002Z" fill="white"/>
<path d="M23.2285 17.0361C19.8254 17.0361 17.0645 19.7971 17.0645 23.2002C17.0645 26.6033 19.8254 29.3643 23.2285 29.3643C26.6316 29.3643 29.3926 26.6033 29.3926 23.2002C29.3926 19.7971 26.6316 17.0361 23.2285 17.0361ZM23.2285 27.1986C21.0207 27.1986 19.2301 25.408 19.2301 23.2002C19.2301 20.9924 21.0207 19.2018 23.2285 19.2018C25.4363 19.2018 27.227 20.9924 27.227 23.2002C27.227 25.408 25.4363 27.1986 23.2285 27.1986Z" fill="white"/>
<path d="M31.0754 16.7926C31.0754 17.5895 30.4285 18.2316 29.6363 18.2316C28.8395 18.2316 28.1973 17.5848 28.1973 16.7926C28.1973 15.9957 28.8441 15.3535 29.6363 15.3535C30.4285 15.3535 31.0754 16.0004 31.0754 16.7926Z" fill="white"/>
</g>
<defs>
<linearGradient id="paint0_linear_580_6771" x1="23.2293" y1="0" x2="23.2293" y2="46.4" gradientUnits="userSpaceOnUse">
<stop stop-color="white"/>
<stop offset="1" stop-color="#E7F0FF"/>
</linearGradient>
<clipPath id="clip0_580_6771">
<rect width="24" height="24" fill="white" transform="translate(11.2285 11.2002)"/>
</clipPath>
</defs>
</svg>
