<svg width="47" height="47" viewBox="0 0 47 47" fill="none" xmlns="http://www.w3.org/2000/svg">
<rect x="0.391797" y="0.3625" width="45.675" height="45.675" rx="12.4375" fill="#2E7AF5"/>
<rect x="0.391797" y="0.3625" width="45.675" height="45.675" rx="12.4375" stroke="url(#paint0_linear_580_5405)" stroke-width="0.725"/>
<g clip-path="url(#clip0_580_5405)">
<path d="M33.452 11.2H13.0004C12.0207 11.2 11.2285 11.9734 11.2285 12.9296V33.4656C11.2285 34.4218 12.0207 35.2 13.0004 35.2H33.452C34.4316 35.2 35.2285 34.4218 35.2285 33.4703V12.9296C35.2285 11.9734 34.4316 11.2 33.452 11.2ZM18.3488 31.6515H14.7863V20.1953H18.3488V31.6515ZM16.5676 18.6343C15.4238 18.6343 14.5004 17.7109 14.5004 16.5718C14.5004 15.4328 15.4238 14.5093 16.5676 14.5093C17.7066 14.5093 18.6301 15.4328 18.6301 16.5718C18.6301 17.7062 17.7066 18.6343 16.5676 18.6343ZM31.6801 31.6515H28.1223V26.0828C28.1223 24.7562 28.0988 23.0453 26.2707 23.0453C24.4191 23.0453 24.1379 24.4937 24.1379 25.989V31.6515H20.5848V20.1953H23.9973V21.7609H24.0441C24.5176 20.8609 25.6801 19.9093 27.4098 19.9093C31.0145 19.9093 31.6801 22.2812 31.6801 25.3656V31.6515V31.6515Z" fill="white"/>
</g>
<defs>
<linearGradient id="paint0_linear_580_5405" x1="23.2293" y1="0" x2="23.2293" y2="46.4" gradientUnits="userSpaceOnUse">
<stop stop-color="white"/>
<stop offset="1" stop-color="#E7F0FF"/>
</linearGradient>
<clipPath id="clip0_580_5405">
<rect width="24" height="24" fill="white" transform="translate(11.2285 11.2)"/>
</clipPath>
</defs>
</svg>
