<svg width="48" height="47" viewBox="0 0 48 47" fill="none" xmlns="http://www.w3.org/2000/svg">
<rect x="1.30195" y="0.3625" width="45.5177" height="45.675" rx="12.4375" fill="#2E7AF5"/>
<rect x="1.30195" y="0.3625" width="45.5177" height="45.675" rx="12.4375" stroke="url(#paint0_linear_580_5007)" stroke-width="0.725"/>
<g clip-path="url(#clip0_580_5007)">
<path d="M20.5721 30.646L16.7847 30.6422V26.1135C16.7847 25.1459 17.16 24.6423 17.9881 24.5272H20.5721C22.4149 24.5272 23.607 25.6891 23.607 27.5696C23.607 29.5011 22.4451 30.6441 20.5721 30.646ZM16.7847 18.4311V17.2391C16.7847 16.196 17.226 15.7 18.1937 15.6358H20.1326C21.7944 15.6358 22.7903 16.6298 22.7903 18.2953C22.7903 19.5628 22.1075 21.0435 20.193 21.0435H16.7847V18.4311ZM25.4083 22.9504L24.7236 22.5656L25.3215 22.0545C26.0175 21.4565 27.1832 20.1117 27.1832 17.7917C27.1832 14.2382 24.4274 11.9465 20.1628 11.9465H15.2965V11.9446H14.742C13.4782 11.9917 12.4653 13.0197 12.4521 14.291V34.4542H20.259C24.999 34.4542 28.0583 31.8739 28.0583 27.8771C28.0583 25.725 27.07 23.8859 25.4083 22.9504Z" fill="white"/>
<path d="M30.0918 31.6688C30.0918 30.1285 31.3341 28.8823 32.8647 28.8823C34.3991 28.8823 35.6472 30.1285 35.6472 31.6688C35.6472 33.2071 34.3991 34.4552 32.8647 34.4552C31.3341 34.4552 30.0918 33.2071 30.0918 31.6688Z" fill="white"/>
</g>
<defs>
<linearGradient id="paint0_linear_580_5007" x1="24.0608" y1="0" x2="24.0608" y2="46.4" gradientUnits="userSpaceOnUse">
<stop stop-color="white"/>
<stop offset="1" stop-color="#E7F0FF"/>
</linearGradient>
<clipPath id="clip0_580_5007">
<rect width="24" height="24" fill="white" transform="translate(12.0605 11.2)"/>
</clipPath>
</defs>
</svg>
