<svg width="47" height="47" viewBox="0 0 47 47" fill="none" xmlns="http://www.w3.org/2000/svg">
<rect x="0.391797" y="0.3625" width="45.675" height="45.675" rx="12.4375" fill="#2E7AF5"/>
<rect x="0.391797" y="0.3625" width="45.675" height="45.675" rx="12.4375" stroke="url(#paint0_linear_580_6793)" stroke-width="0.725"/>
<g clip-path="url(#clip0_580_6793)">
<path d="M23.2285 11.2002C16.6012 11.2002 11.2285 16.5728 11.2285 23.2002C11.2285 28.8277 15.1031 33.55 20.3298 34.8469V26.8674H17.8554V23.2002H20.3298V21.62C20.3298 17.5357 22.1783 15.6426 26.1882 15.6426C26.9485 15.6426 28.2604 15.7919 28.797 15.9407V19.2647C28.5138 19.2349 28.0218 19.22 27.4108 19.22C25.4432 19.22 24.6829 19.9655 24.6829 21.9032V23.2002H28.6026L27.9292 26.8674H24.6829V35.1124C30.6248 34.3948 35.229 29.3356 35.229 23.2002C35.2285 16.5728 29.8559 11.2002 23.2285 11.2002Z" fill="white"/>
</g>
<defs>
<linearGradient id="paint0_linear_580_6793" x1="23.2293" y1="0" x2="23.2293" y2="46.4" gradientUnits="userSpaceOnUse">
<stop stop-color="white"/>
<stop offset="1" stop-color="#E7F0FF"/>
</linearGradient>
<clipPath id="clip0_580_6793">
<rect width="24" height="24" fill="white" transform="translate(11.2285 11.2002)"/>
</clipPath>
</defs>
</svg>
