<svg width="47" height="47" viewBox="0 0 47 47" fill="none" xmlns="http://www.w3.org/2000/svg">
<rect x="0.391797" y="0.3625" width="45.675" height="45.675" rx="12.4375" fill="#2E7AF5"/>
<rect x="0.391797" y="0.3625" width="45.675" height="45.675" rx="12.4375" stroke="url(#paint0_linear_580_6832)" stroke-width="0.725"/>
<path d="M16.7842 23.4241C16.7842 22.2776 17.0495 21.3442 17.5801 20.6241C18.1108 19.8945 18.8025 19.3544 19.6553 19.0038C20.5175 18.6532 21.4367 18.4779 22.4127 18.4779C22.8391 18.4779 23.3744 18.4874 24.0188 18.5063C24.6726 18.5253 25.2601 18.5869 25.7812 18.6911V21.5053C25.3738 21.4106 24.881 21.3585 24.303 21.349C23.7345 21.33 23.2607 21.3206 22.8817 21.3206C22.2468 21.3206 21.792 21.4911 21.5172 21.8322C21.2424 22.1639 21.105 22.595 21.105 23.1257C21.105 23.5047 21.2187 23.8221 21.4462 24.0779C21.683 24.3243 22.0052 24.4475 22.4127 24.4475C22.9812 24.4475 23.5592 24.2438 24.1467 23.8363C24.7342 23.4289 25.2316 22.8698 25.6391 22.1591L26.2645 24.9734C25.8949 25.4093 25.4733 25.8404 24.9995 26.2668C24.5257 26.6837 23.9714 27.0296 23.3365 27.3044C22.7017 27.5792 21.9578 27.7166 21.105 27.7166C20.1291 27.7166 19.3189 27.5034 18.6746 27.077C18.0397 26.6411 17.5659 26.0962 17.2532 25.4424C16.9405 24.7791 16.7842 24.1064 16.7842 23.4241ZM29.6757 25.2434C29.5999 25.6414 29.4246 26.0678 29.1498 26.5226C28.875 26.9775 28.6002 27.3139 28.3254 27.5318C27.4916 27.5128 26.7998 27.3233 26.2503 26.9633C25.7102 26.6032 25.2932 26.1626 24.9995 25.6414C24.7152 25.1108 24.5304 24.5944 24.4452 24.0922V18.0088C24.4452 17.4214 24.2936 16.976 23.9903 16.6728C23.6966 16.3601 23.2276 16.2037 22.5832 16.2037C21.9768 16.2037 21.3135 16.3032 20.5934 16.5022C19.8732 16.6917 19.1389 16.8955 18.3903 17.1134C18.0776 16.7533 17.8312 16.289 17.6512 15.7205C17.4806 15.1425 17.3717 14.5787 17.3243 14.0291C17.9686 13.7638 18.6793 13.5411 19.4563 13.3611C20.2333 13.1716 21.0055 13.0294 21.7731 12.9347C22.5406 12.8304 23.2276 12.7783 23.834 12.7783C24.6678 12.7783 25.4685 12.9347 26.236 13.2474C27.0036 13.5506 27.6337 14.0575 28.1264 14.7682C28.6286 15.4694 28.8797 16.4217 28.8797 17.6251V23.4099C28.8797 23.8174 28.9461 24.1774 29.0787 24.4901C29.2114 24.8028 29.4104 25.0539 29.6757 25.2434Z" fill="white"/>
<path fill-rule="evenodd" clip-rule="evenodd" d="M31.7862 31.7334C29.3041 33.5659 25.6938 34.542 22.5799 34.542C18.2175 34.542 14.3063 32.935 11.3278 30.2616C11.1022 30.0514 11.2977 29.766 11.5835 29.9312C14.7877 31.7935 18.744 32.9049 22.8356 32.9049C25.5885 32.9049 28.6272 32.3342 31.4252 31.1477C31.8462 30.9825 32.1924 31.4331 31.7862 31.7334Z" fill="white"/>
<path fill-rule="evenodd" clip-rule="evenodd" d="M33.4008 30.1387C32.9004 29.6192 30.0634 29.8885 28.8 30.0232C28.4186 30.0617 28.3471 29.7924 28.7046 29.6C30.9693 28.3109 34.6643 28.6956 35.0934 29.1189C35.5225 29.5422 34.9742 32.5434 32.8522 33.9674C32.5186 34.179 32.2086 34.0636 32.3517 33.775C32.8287 32.813 33.9014 30.6772 33.4008 30.1387Z" fill="white"/>
<defs>
<linearGradient id="paint0_linear_580_6832" x1="23.2293" y1="0" x2="23.2293" y2="46.4" gradientUnits="userSpaceOnUse">
<stop stop-color="white"/>
<stop offset="1" stop-color="#E7F0FF"/>
</linearGradient>
</defs>
</svg>
