<svg width="48" height="47" viewBox="0 0 48 47" fill="none" xmlns="http://www.w3.org/2000/svg">
<rect x="1.30195" y="0.3625" width="45.5177" height="45.675" rx="12.4375" fill="#2E7AF5"/>
<rect x="1.30195" y="0.3625" width="45.5177" height="45.675" rx="12.4375" stroke="url(#paint0_linear_580_6843)" stroke-width="0.725"/>
<g clip-path="url(#clip0_580_6843)">
<path d="M35.8215 18.4C35.8215 18.4 35.5871 16.7453 34.8652 16.0188C33.9512 15.0625 32.9293 15.0578 32.4605 15.0016C29.1043 14.7578 24.0652 14.7578 24.0652 14.7578H24.0559C24.0559 14.7578 19.0168 14.7578 15.6605 15.0016C15.1918 15.0578 14.1699 15.0625 13.2559 16.0188C12.534 16.7453 12.3043 18.4 12.3043 18.4C12.3043 18.4 12.0605 20.3453 12.0605 22.2859V24.1047C12.0605 26.0453 12.2996 27.9906 12.2996 27.9906C12.2996 27.9906 12.534 29.6453 13.2512 30.3719C14.1652 31.3281 15.3652 31.2953 15.8996 31.3984C17.8215 31.5813 24.0605 31.6375 24.0605 31.6375C24.0605 31.6375 29.1043 31.6281 32.4605 31.3891C32.9293 31.3328 33.9512 31.3281 34.8652 30.3719C35.5871 29.6453 35.8215 27.9906 35.8215 27.9906C35.8215 27.9906 36.0605 26.05 36.0605 24.1047V22.2859C36.0605 20.3453 35.8215 18.4 35.8215 18.4ZM21.5809 26.3125V19.5672L28.0637 22.9516L21.5809 26.3125Z" fill="white"/>
</g>
<defs>
<linearGradient id="paint0_linear_580_6843" x1="24.0608" y1="0" x2="24.0608" y2="46.4" gradientUnits="userSpaceOnUse">
<stop stop-color="white"/>
<stop offset="1" stop-color="#E7F0FF"/>
</linearGradient>
<clipPath id="clip0_580_6843">
<rect width="24" height="24" fill="white" transform="translate(12.0605 11.2)"/>
</clipPath>
</defs>
</svg>
