<svg width="47" height="47" viewBox="0 0 47 47" fill="none" xmlns="http://www.w3.org/2000/svg">
<rect x="0.391797" y="0.3625" width="45.675" height="45.675" rx="12.4375" fill="#2E7AF5"/>
<rect x="0.391797" y="0.3625" width="45.675" height="45.675" rx="12.4375" stroke="url(#paint0_linear_580_10777)" stroke-width="0.725"/>
<path d="M23.752 35.1474C21.3581 35.1474 19.2541 34.6583 17.4401 33.6801C15.641 32.688 14.2359 31.3116 13.2248 29.551C12.2286 27.7763 11.7305 25.7222 11.7305 23.3887C11.7305 20.9154 12.2211 18.7704 13.2025 16.9539C14.1987 15.1373 15.5815 13.733 17.3509 12.7409C19.1203 11.7487 21.1797 11.2527 23.5289 11.2527C25.9823 11.2527 28.0714 11.7907 29.7962 12.8666C31.521 13.9286 32.8071 15.4447 33.6547 17.415C34.5171 19.3853 34.8591 21.7258 34.6806 24.4367H30.0192V22.8437C29.9895 20.2167 29.4542 18.2744 28.4134 17.0168C27.3874 15.7591 25.8188 15.1303 23.7074 15.1303C21.373 15.1303 19.6184 15.822 18.4438 17.2054C17.2691 18.5888 16.6818 20.587 16.6818 23.2C16.6818 25.6873 17.2691 27.6157 18.4438 28.9851C19.6184 30.3405 21.3135 31.0182 23.5289 31.0182C24.9861 31.0182 26.2425 30.7108 27.2982 30.0959C28.3688 29.4671 29.2014 28.5728 29.7962 27.413L34.3684 28.7754C33.4316 30.8016 32.0117 32.3736 30.1084 33.4915C28.2052 34.5954 26.0864 35.1474 23.752 35.1474ZM15.1652 24.4367V21.0202H32.3611V24.4367H15.1652Z" fill="white"/>
<defs>
<linearGradient id="paint0_linear_580_10777" x1="23.2293" y1="0" x2="23.2293" y2="46.4" gradientUnits="userSpaceOnUse">
<stop stop-color="white"/>
<stop offset="1" stop-color="#E7F0FF"/>
</linearGradient>
</defs>
</svg>
