<svg width="47" height="47" viewBox="0 0 47 47" fill="none" xmlns="http://www.w3.org/2000/svg">
<rect x="0.391797" y="0.3625" width="45.675" height="45.675" rx="12.4375" fill="#2E7AF5"/>
<rect x="0.391797" y="0.3625" width="45.675" height="45.675" rx="12.4375" stroke="url(#paint0_linear_580_7069)" stroke-width="0.725"/>
<g clip-path="url(#clip0_580_7069)">
<path d="M23.2295 21.0186V25.6658H29.6877C29.4041 27.1604 28.5531 28.4259 27.2767 29.2768L31.1712 32.2986C33.4403 30.2041 34.7494 27.1277 34.7494 23.4732C34.7494 22.6223 34.6731 21.8041 34.5312 21.0187L23.2295 21.0186Z" fill="white"/>
<path d="M16.5041 25.4844L15.6257 26.1568L12.5166 28.5785C14.4911 32.4949 18.5381 35.2004 23.229 35.2004C26.4689 35.2004 29.1852 34.1313 31.1707 32.2986L27.2762 29.2767C26.2071 29.9967 24.8435 30.4331 23.229 30.4331C20.109 30.4331 17.4582 28.3277 16.509 25.4913L16.5041 25.4844Z" fill="white"/>
<path d="M12.5167 17.8218C11.6985 19.4363 11.2295 21.2581 11.2295 23.1999C11.2295 25.1417 11.6985 26.9635 12.5167 28.578C12.5167 28.5888 16.5095 25.4798 16.5095 25.4798C16.2695 24.7598 16.1276 23.9962 16.1276 23.1998C16.1276 22.4033 16.2695 21.6397 16.5095 20.9197L12.5167 17.8218Z" fill="white"/>
<path d="M23.2292 15.9784C24.9965 15.9784 26.5674 16.5893 27.822 17.7675L31.2583 14.3311C29.1746 12.3894 26.4693 11.2002 23.2292 11.2002C18.5384 11.2002 14.4911 13.8947 12.5166 17.822L16.5093 20.9202C17.4583 18.0838 20.1093 15.9784 23.2292 15.9784Z" fill="white"/>
</g>
<defs>
<linearGradient id="paint0_linear_580_7069" x1="23.2293" y1="0" x2="23.2293" y2="46.4" gradientUnits="userSpaceOnUse">
<stop stop-color="white"/>
<stop offset="1" stop-color="#E7F0FF"/>
</linearGradient>
<clipPath id="clip0_580_7069">
<rect width="24" height="24" fill="white" transform="translate(11.2295 11.2002)"/>
</clipPath>
</defs>
</svg>
