<svg width="92" height="66" fill="none" xmlns="http://www.w3.org/2000/svg"><g clip-path="url(#a)"><rect x=".5" width="91" height="65.8" rx="11.2" fill="#fff"/><path fill-rule="evenodd" clip-rule="evenodd" d="M.5 43.867h91V65.8H.5V43.867Z" fill="#249F58"/><path fill-rule="evenodd" clip-rule="evenodd" d="M46 43.867c5.98 0 10.834-4.913 10.834-10.967S51.98 21.933 46 21.933c-5.98 0-10.833 4.913-10.833 10.967 0 6.053 4.853 10.967 10.833 10.967Zm0-4.387c3.588 0 6.5-2.948 6.5-6.58s-2.912-6.58-6.5-6.58-6.5 2.948-6.5 6.58 2.912 6.58 6.5 6.58Z" fill="#1A47B8"/><path d="M46 35.093c1.196 0 2.166-.982 2.166-2.193s-.97-2.193-2.166-2.193c-1.197 0-2.167.982-2.167 2.193s.97 2.193 2.167 2.193Z" fill="#1A47B8"/><path fill-rule="evenodd" clip-rule="evenodd" d="M.5 0h91v21.933H.5V0Z" fill="#FF6C2D"/></g><defs><clipPath id="a"><rect x=".5" width="91" height="65.8" rx="11.2" fill="#fff"/></clipPath></defs></svg>