<svg width="92" height="66" fill="none" xmlns="http://www.w3.org/2000/svg"><g clip-path="url(#a)"><rect x=".5" width="91" height="65.8" rx="11.2" fill="#F93939"/><path d="M82.833 0H9.167C4.38 0 .5 3.928.5 8.773v48.254c0 4.845 3.88 8.773 8.667 8.773h73.666c4.787 0 8.667-3.928 8.667-8.773V8.773C91.5 3.928 87.62 0 82.833 0Z" fill="#F93939"/><path fill-rule="evenodd" clip-rule="evenodd" d="m24.325 31.716-6.37 3.39 1.214-7.18-5.149-5.089 7.12-1.04 3.185-6.536 3.18 6.536 7.12 1.04-5.156 5.089 1.222 7.176-6.366-3.386ZM39.501 13.16h4.333v4.387H39.5V13.16Zm4.333 8.773h4.333v4.387h-4.333v-4.387Zm0 8.774h4.333v4.386h-4.333v-4.386ZM39.5 39.48h4.334v4.387H39.5V39.48Z" fill="#FFDA2C"/></g><defs><clipPath id="a"><rect x=".5" width="91" height="65.8" rx="11.2" fill="#fff"/></clipPath></defs></svg>