<svg aria-hidden="true" style="position: absolute; width: 0; height: 0; overflow: hidden;" version="1.1" xmlns="http://www.w3.org/2000/svg" xmlns:xlink="http://www.w3.org/1999/xlink">
<defs>
<symbol id="icon-flag_au" viewBox="0 0 45 32">
<path fill="#1a47b8" style="fill: var(--color1, #1a47b8)" d="M5.673 0h33.261c2.999 0 5.43 2.431 5.43 5.43v21.042c0 2.999-2.431 5.43-5.43 5.43h-33.261c-2.999 0-5.43-2.431-5.43-5.43v-21.042c0-2.999 2.431-5.43 5.43-5.43z"></path>
<path fill="#1a47b8" style="fill: var(--color1, #1a47b8)" d="M40.161 0h-35.717c-2.321 0-4.202 1.905-4.202 4.254v23.396c0 2.349 1.881 4.254 4.202 4.254h35.717c2.321 0 4.202-1.904 4.202-4.254v-23.396c0-2.349-1.881-4.254-4.202-4.254z"></path>
<path fill="#fff" style="fill: var(--color2, #fff)" opacity="0.5" d="M8.647 24.459l2.101-1.064 1.051-2.127 1.051 2.127 2.101 1.064-2.101 1.063-1.051 2.127-1.051-2.127-2.101-1.063zM29.657 6.381v2.127h2.101v-2.127h-2.101zM35.96 8.508v2.127h2.101v-2.127h-2.101zM27.556 12.761v2.127h2.101v-2.127h-2.101zM33.859 14.888v2.127h2.101v-2.127h-2.101zM31.758 21.269v2.127h2.101v-2.127h-2.101z"></path>
<path fill="#fff" style="fill: var(--color2, #fff)" d="M19.151 2.127h-14.706c-1.16 0-2.101 0.952-2.101 2.127v10.635c0 1.174 0.941 2.127 2.101 2.127h14.707c1.16 0 2.101-0.952 2.101-2.127v-10.635c0-1.174-0.941-2.127-2.101-2.127z"></path>
<path fill="#f93939" style="fill: var(--color3, #f93939)" d="M10.748 10.634h-6.303v-2.127h6.303v-4.254h2.101v4.254h6.303v2.127h-6.303v4.254h-2.101v-4.254zM16 12.761v2.127h3.151v-2.127h-3.152zM16 4.254v2.127h3.151v-2.127h-3.152zM4.445 12.761v2.127h3.151v-2.127h-3.152zM4.445 4.254v2.127h3.151v-2.127h-3.152z"></path>
</symbol>

<symbol id="icon-flag_br" viewBox="0 0 45 32">
<path fill="#249f58" style="fill: var(--color4, #249f58)" d="M5.673 0h33.261c2.999 0 5.43 2.431 5.43 5.43v21.042c0 2.999-2.431 5.43-5.43 5.43h-33.261c-2.999 0-5.43-2.431-5.43-5.43v-21.042c0-2.999 2.431-5.43 5.43-5.43z"></path>
<path fill="#ffda2c" style="fill: var(--color5, #ffda2c)" d="M22.303 4.254l15.758 11.698-15.758 11.698-15.758-11.698z"></path>
<path fill="#1a47b8" style="fill: var(--color1, #1a47b8)" d="M22.303 23.395c4.062 0 7.354-3.333 7.354-7.444s-3.292-7.444-7.353-7.444c-4.062 0-7.354 3.333-7.354 7.444s3.292 7.444 7.354 7.444z"></path>
<path fill="#fff" style="fill: var(--color2, #fff)" d="M19.152 19.142v2.127h2.101v-2.127h-2.101zM23.354 19.142v2.127h2.1v-2.127h-2.101zM17.051 12.761s4.756 0.851 8.186 2.335l4.42 1.918z"></path>
<path fill="none" stroke="#fff" style="stroke: var(--color2, #fff)" stroke-linejoin="miter" stroke-linecap="butt" stroke-miterlimit="4" stroke-width="0.6788" d="M17.051 12.761s4.756 0.851 8.186 2.335l4.42 1.918"></path>
</symbol>

<symbol id="icon-flag_ch" viewBox="0 0 45 32">
<path fill="#f93939" style="fill: var(--color3, #f93939)" d="M5.673 0h33.261c2.999 0 5.43 2.431 5.43 5.43v21.042c0 2.999-2.431 5.43-5.43 5.43h-33.261c-2.999 0-5.43-2.431-5.43-5.43v-21.042c0-2.999 2.431-5.43 5.43-5.43z"></path>
<path fill="#f93939" style="fill: var(--color3, #f93939)" d="M40.161 0h-35.717c-2.321 0-4.202 1.905-4.202 4.254v23.396c0 2.349 1.881 4.254 4.202 4.254h35.717c2.321 0 4.202-1.904 4.202-4.254v-23.396c0-2.349-1.881-4.254-4.202-4.254z"></path>
<path fill="#ffda2c" style="fill: var(--color5, #ffda2c)" d="M11.794 15.377l-3.088 1.644 0.589-3.481-2.497-2.467 3.452-0.504 1.544-3.169 1.542 3.169 3.452 0.504-2.5 2.467 0.592 3.479-3.087-1.642zM19.152 6.381h2.101v2.127h-2.101v-2.127zM21.253 10.634h2.101v2.127h-2.101v-2.127zM21.253 14.888h2.101v2.127h-2.101v-2.127zM19.151 19.142h2.101v2.127h-2.101v-2.127z"></path>
</symbol>

<symbol id="icon-flag_de" viewBox="0 0 45 32">
<path fill="#f93939" style="fill: var(--color3, #f93939)" d="M5.673 0h33.261c2.999 0 5.43 2.431 5.43 5.43v21.042c0 2.999-2.431 5.43-5.43 5.43h-33.261c-2.999 0-5.43-2.431-5.43-5.43v-21.042c0-2.999 2.431-5.43 5.43-5.43z"></path>
<path fill="#ffda2c" style="fill: var(--color5, #ffda2c)" d="M0.242 21.269h44.121v10.634h-44.121v-10.634z"></path>
<path fill="#151515" style="fill: var(--color6, #151515)" d="M0.242 0h44.121v10.634h-44.121v-10.634z"></path>
</symbol>

<symbol id="icon-flag_es" viewBox="0 0 45 32">
<path fill="#f93939" style="fill: var(--color3, #f93939)" d="M5.673 0h33.261c2.999 0 5.43 2.431 5.43 5.43v21.042c0 2.999-2.431 5.43-5.43 5.43h-33.261c-2.999 0-5.43-2.431-5.43-5.43v-21.042c0-2.999 2.431-5.43 5.43-5.43z"></path>
<path fill="#f93939" style="fill: var(--color3, #f93939)" d="M40.161 0h-35.717c-2.321 0-4.202 1.905-4.202 4.254v23.396c0 2.349 1.881 4.254 4.202 4.254h35.717c2.321 0 4.202-1.904 4.202-4.254v-23.396c0-2.349-1.881-4.254-4.202-4.254z"></path>
<path fill="#ffda2c" style="fill: var(--color5, #ffda2c)" d="M0.242 8.508h44.121v14.888h-44.121v-14.888z"></path>
<path fill="#d4af2c" style="fill: var(--color7, #d4af2c)" d="M19.151 13.233v5.36c0 1.488-1.411 2.68-3.152 2.68h-4.202c-1.736-0.004-3.152-1.201-3.152-2.684v-5.36c0-1.217 0.941-2.233 2.235-2.563 0.391-1.106 1.593-0.115 3.017-0.115 1.433 0 2.626-0.984 3.017 0.117 1.29 0.338 2.235 1.358 2.235 2.565z"></path>
<path fill="#cbcbcb" style="fill: var(--color8, #cbcbcb)" d="M19.152 14.888h2.101v6.381h-2.101v-6.381zM6.546 14.888h2.101v6.381h-2.101v-6.381z"></path>
<path fill="#1a47b8" style="fill: var(--color1, #1a47b8)" d="M19.152 19.142h2.101v2.127h-2.101v-2.127zM6.546 19.142h2.101v2.127h-2.101v-2.127z"></path>
<path fill="#d4af2c" style="fill: var(--color7, #d4af2c)" d="M19.152 12.761h2.101v2.127h-2.101v-2.127zM6.546 12.761h2.101v2.127h-2.101v-2.127z"></path>
<path fill="#af010d" style="fill: var(--color9, #af010d)" d="M10.748 12.761h2.101v3.19h-2.101v-3.19zM14.95 17.015h2.101v3.19h-2.101v-3.19z"></path>
<path fill="#ffda2c" style="fill: var(--color5, #ffda2c)" d="M10.748 17.015h2.101v3.19h-2.101v-3.19z"></path>
<path fill="#ae6a3e" style="fill: var(--color10, #ae6a3e)" d="M14.95 12.761h2.101v3.19h-2.101v-3.19z"></path>
<path fill="#af010d" style="fill: var(--color9, #af010d)" d="M12.849 12.761l-2.101-2.127h6.303l-2.101 2.127h-2.102z"></path>
<path fill="#d4af2c" style="fill: var(--color7, #d4af2c)" d="M12.848 8.508h2.101v2.127h-2.101v-2.127z"></path>
</symbol>

<symbol id="icon-flag_fr" viewBox="0 0 45 32">
<path fill="#fff" style="fill: var(--color2, #fff)" d="M5.673 0h33.261c2.999 0 5.43 2.431 5.43 5.43v21.042c0 2.999-2.431 5.43-5.43 5.43h-33.261c-2.999 0-5.43-2.431-5.43-5.43v-21.042c0-2.999 2.431-5.43 5.43-5.43z"></path>
<path fill="#f93939" style="fill: var(--color3, #f93939)" d="M29.657 0h14.707v31.903h-14.707v-31.903z"></path>
<path fill="#1a47b8" style="fill: var(--color1, #1a47b8)" d="M0.242 0h14.707v31.903h-14.707v-31.903z"></path>
</symbol>

<symbol id="icon-flag_in" viewBox="0 0 45 32">
<path fill="#fff" style="fill: var(--color2, #fff)" d="M5.673 0h33.261c2.999 0 5.43 2.431 5.43 5.43v21.042c0 2.999-2.431 5.43-5.43 5.43h-33.261c-2.999 0-5.43-2.431-5.43-5.43v-21.042c0-2.999 2.431-5.43 5.43-5.43z"></path>
<path fill="#249f58" style="fill: var(--color4, #249f58)" d="M0.242 21.269h44.121v10.634h-44.121v-10.634z"></path>
<path fill="#1a47b8" style="fill: var(--color1, #1a47b8)" d="M22.303 21.269c-2.899 0-5.252-2.383-5.252-5.317s2.353-5.317 5.252-5.317 5.253 2.382 5.253 5.317c0 2.935-2.353 5.317-5.253 5.317zM22.303 19.142c1.74 0 3.151-1.429 3.151-3.19s-1.412-3.19-3.151-3.19-3.151 1.429-3.151 3.19 1.412 3.19 3.151 3.19z"></path>
<path fill="#1a47b8" style="fill: var(--color1, #1a47b8)" d="M22.303 17.015c0.58 0 1.050-0.476 1.050-1.063s-0.47-1.063-1.050-1.063c-0.58 0-1.051 0.476-1.051 1.063s0.47 1.063 1.051 1.063z"></path>
<path fill="#ff6c2d" style="fill: var(--color11, #ff6c2d)" d="M0.242 0h44.121v10.634h-44.121v-10.634z"></path>
</symbol>

<symbol id="icon-flag_nl" viewBox="0 0 45 32">
<path fill="#fff" style="fill: var(--color2, #fff)" d="M5.673 0h33.261c2.999 0 5.43 2.431 5.43 5.43v21.042c0 2.999-2.431 5.43-5.43 5.43h-33.261c-2.999 0-5.43-2.431-5.43-5.43v-21.042c0-2.999 2.431-5.43 5.43-5.43z"></path>
<path fill="#1e448d" style="fill: var(--color12, #1e448d)" d="M0.242 21.269h44.121v10.634h-44.121v-10.634z"></path>
<path fill="#b01923" style="fill: var(--color13, #b01923)" d="M0.242 0h44.121v10.634h-44.121v-10.634z"></path>
</symbol>

<symbol id="icon-flag_pk" viewBox="0 0 45 32">
<path fill="#0a6a30" style="fill: var(--color14, #0a6a30)" d="M5.673 0h33.261c2.999 0 5.43 2.431 5.43 5.43v21.042c0 2.999-2.431 5.43-5.43 5.43h-33.261c-2.999 0-5.43-2.431-5.43-5.43v-21.042c0-2.999 2.431-5.43 5.43-5.43z"></path>
<path fill="#0a6a30" style="fill: var(--color14, #0a6a30)" d="M40.161 0h-35.717c-2.321 0-4.202 1.905-4.202 4.254v23.396c0 2.349 1.881 4.254 4.202 4.254h35.717c2.321 0 4.202-1.904 4.202-4.254v-23.396c0-2.349-1.881-4.254-4.202-4.254z"></path>
<path fill="#fff" style="fill: var(--color2, #fff)" d="M33.804 12.706c-0.138 1.267-0.533 2.182-0.995 2.182s-0.857-0.914-0.996-2.182c-1.252-0.141-2.156-0.54-2.156-1.008s0.903-0.868 2.156-1.008c0.139-1.267 0.533-2.182 0.996-2.182s0.857 0.914 0.996 2.182c1.252 0.141 2.156 0.541 2.156 1.008s-0.904 0.868-2.156 1.008zM0.242 0h12.606v31.903h-12.606v-31.903z"></path>
<path fill="#fff" style="fill: var(--color2, #fff)" d="M37.998 14.82c0.042 0.372 0.063 0.749 0.063 1.132 0 5.285-4.234 9.571-9.455 9.571s-9.455-4.286-9.455-9.571c0-5.285 4.234-9.571 9.455-9.571 0.378 0 0.75 0.021 1.118 0.064-3.597 0.489-6.37 3.609-6.37 7.38 0 4.112 3.292 7.444 7.353 7.444 3.728 0 6.807-2.807 7.291-6.448z"></path>
</symbol>

<symbol id="icon-flag_pl" viewBox="0 0 45 32">
<path fill="#af010d" style="fill: var(--color9, #af010d)" d="M5.673 0h33.261c2.999 0 5.43 2.431 5.43 5.43v21.042c0 2.999-2.431 5.43-5.43 5.43h-33.261c-2.999 0-5.43-2.431-5.43-5.43v-21.042c0-2.999 2.431-5.43 5.43-5.43z"></path>
<path fill="#fff" style="fill: var(--color2, #fff)" d="M0.242 0h44.121v17.015h-44.121v-17.015z"></path>
</symbol>

<symbol id="icon-flag_ru" viewBox="0 0 45 32">
<path fill="#1a47b8" style="fill: var(--color1, #1a47b8)" d="M5.673 0h33.261c2.999 0 5.43 2.431 5.43 5.43v21.042c0 2.999-2.431 5.43-5.43 5.43h-33.261c-2.999 0-5.43-2.431-5.43-5.43v-21.042c0-2.999 2.431-5.43 5.43-5.43z"></path>
<path fill="#f93939" style="fill: var(--color3, #f93939)" d="M0.242 21.269h44.121v10.634h-44.121v-10.634z"></path>
<path fill="#fff" style="fill: var(--color2, #fff)" d="M0.242 0h44.121v10.634h-44.121v-10.634z"></path>
</symbol>

<symbol id="icon-flag_tr" viewBox="0 0 45 32">
<path fill="#f93939" style="fill: var(--color3, #f93939)" d="M5.673 0h33.261c2.999 0 5.43 2.431 5.43 5.43v21.042c0 2.999-2.431 5.43-5.43 5.43h-33.261c-2.999 0-5.43-2.431-5.43-5.43v-21.042c0-2.999 2.431-5.43 5.43-5.43z"></path>
<path fill="#fff" style="fill: var(--color2, #fff)" d="M29.661 18.401l-2.441 1.297 0.466-2.75-1.975-1.95 2.732-0.404 1.218-2.501 1.218 2.503 2.732 0.404-1.975 1.946 0.466 2.75z"></path>
<path fill="#fff" style="fill: var(--color2, #fff)" d="M20.202 23.395c-4.062 0-7.354-3.332-7.354-7.444s3.292-7.444 7.354-7.444c4.061 0 7.353 3.332 7.353 7.444s-3.292 7.444-7.353 7.444zM22.303 21.269c2.899 0 5.252-2.382 5.252-5.317s-2.353-5.317-5.252-5.317-5.252 2.382-5.252 5.317 2.353 5.317 5.252 5.317z"></path>
</symbol>

<symbol id="icon-flag_ua" viewBox="0 0 45 32">
<path fill="#ffda2c" style="fill: var(--color5, #ffda2c)" d="M5.673 0h33.261c2.999 0 5.43 2.431 5.43 5.43v21.042c0 2.999-2.431 5.43-5.43 5.43h-33.261c-2.999 0-5.43-2.431-5.43-5.43v-21.042c0-2.999 2.431-5.43 5.43-5.43z"></path>
<path fill="#3a99ff" style="fill: var(--color15, #3a99ff)" d="M0.242 0h44.121v17.015h-44.121v-17.015z"></path>
</symbol>

<symbol id="icon-flag_uk" viewBox="0 0 45 32">
<path fill="#1a47b8" style="fill: var(--color1, #1a47b8)" d="M5.673 0h33.261c2.999 0 5.43 2.431 5.43 5.43v21.042c0 2.999-2.431 5.43-5.43 5.43h-33.261c-2.999 0-5.43-2.431-5.43-5.43v-21.042c0-2.999 2.431-5.43 5.43-5.43z"></path>
<path fill="#fff" style="fill: var(--color2, #fff)" d="M4.936 0h-4.693v5.317l39.402 26.586h4.719v-5.317l-39.428-26.586z"></path>
<path fill="#f93939" style="fill: var(--color3, #f93939)" d="M1.808 0l42.556 28.788v3.115h-1.529l-42.593-28.818v-3.085h1.566z"></path>
<path fill="#fff" style="fill: var(--color2, #fff)" d="M40.161 0h4.202v5.317s-27.292 17.712-39.919 26.586h-4.202v-5.317l39.919-26.586z"></path>
<path fill="#f93939" style="fill: var(--color3, #f93939)" d="M44.364 0h-1.425l-42.696 28.813v3.090h1.566l42.556-28.795v-3.108z"></path>
<path fill="#fff" style="fill: var(--color2, #fff)" d="M16.288 0h12.067v9.841h16.009v12.215h-16.009v9.847h-12.067v-9.847h-16.046v-12.215h16.046v-9.841z"></path>
<path fill="#f93939" style="fill: var(--color3, #f93939)" d="M18.82 0h6.966v12.271h18.577v7.362h-18.577v12.271h-6.966v-12.271h-18.577v-7.362h18.577v-12.271z"></path>
</symbol>

<symbol id="icon-flag_us" viewBox="0 0 45 32">
<path fill="#fff" style="fill: var(--color2, #fff)" d="M5.673 0h33.261c2.999 0 5.43 2.431 5.43 5.43v21.042c0 2.999-2.431 5.43-5.43 5.43h-33.261c-2.999 0-5.43-2.431-5.43-5.43v-21.042c0-2.999 2.431-5.43 5.43-5.43z"></path>
<path fill="#1a47b8" style="fill: var(--color1, #1a47b8)" d="M0.242 0h18.909v14.888h-18.909v-14.888z"></path>
<path fill="#f93939" style="fill: var(--color3, #f93939)" d="M19.151 0v2.127h25.212v-2.127h-25.212zM19.151 4.254v2.127h25.212v-2.127h-25.212zM19.151 8.508v2.127h25.212v-2.127h-25.212zM19.151 12.761v2.127h25.212v-2.127h-25.212zM0.242 17.015v2.127h44.121v-2.127h-44.121zM0.242 21.269v2.127h44.121v-2.127h-44.121zM0.242 25.522v2.127h44.121v-2.127h-44.121zM0.242 29.776v2.127h44.121v-2.127h-44.121z"></path>
<path fill="#fff" style="fill: var(--color2, #fff)" d="M2.344 2.127v2.127h2.101v-2.127h-2.101zM6.546 2.127v2.127h2.101v-2.127h-2.101zM10.748 2.127v2.127h2.101v-2.127h-2.101zM14.95 2.127v2.127h2.101v-2.127h-2.101zM12.849 4.254v2.127h2.101v-2.127h-2.101zM8.647 4.254v2.127h2.101v-2.127h-2.101zM4.445 4.254v2.127h2.101v-2.127h-2.101zM2.344 6.381v2.127h2.101v-2.127h-2.101zM6.546 6.381v2.127h2.101v-2.127h-2.101zM10.748 6.381v2.127h2.101v-2.127h-2.101zM14.95 6.381v2.127h2.101v-2.127h-2.101zM2.344 10.634v2.127h2.101v-2.127h-2.101zM6.546 10.634v2.127h2.101v-2.127h-2.101zM10.748 10.634v2.127h2.101v-2.127h-2.101zM14.95 10.634v2.127h2.101v-2.127h-2.101zM12.849 8.508v2.127h2.101v-2.127h-2.101zM8.647 8.508v2.127h2.101v-2.127h-2.101zM4.445 8.508v2.127h2.101v-2.127h-2.101z"></path>
</symbol>
</defs>
</svg>
