<svg aria-hidden="true" style="position: absolute; width: 0; height: 0; overflow: hidden;" version="1.1" xmlns="http://www.w3.org/2000/svg" xmlns:xlink="http://www.w3.org/1999/xlink">
    <defs>
        <symbol id="icon-search" viewBox="0 0 32 32">
            <path d="M19.427 20.427c-1.39 0.99-3.090 1.573-4.927 1.573-4.694 0-8.5-3.806-8.5-8.5s3.806-8.5 8.5-8.5c4.694 0 8.5 3.806 8.5 8.5 0 1.837-0.583 3.537-1.573 4.927l5.585 5.585c0.55 0.55 0.546 1.431-0 1.976l-0.023 0.023c-0.544 0.544-1.431 0.546-1.976 0l-5.585-5.585zM14.5 20c3.59 0 6.5-2.91 6.5-6.5s-2.91-6.5-6.5-6.5c-3.59 0-6.5 2.91-6.5 6.5s2.91 6.5 6.5 6.5v0z"></path>
        </symbol>
        
        <symbol id="icon-arrow" viewBox="0 0 32 32">
            <path fill="none" stroke-linejoin="miter" stroke-linecap="butt" stroke-miterlimit="4" stroke-width="3.1947" d="M29.797 1.554v27.995M29.797 29.549h-28.188M29.797 29.549l-28.188-27.995"></path>
        </symbol>
        
        <symbol id="icon-check" viewBox="0 0 32 32">
            <path fill="#fff" opacity="0.5" stroke="#000" stroke-linejoin="miter" stroke-linecap="butt" stroke-miterlimit="4" stroke-width="0.3765" d="M11.294 0.188h9.412c6.134 0 11.106 4.972 11.106 11.106v9.412c0 6.134-4.972 11.106-11.106 11.106h-9.412c-6.134 0-11.106-4.972-11.106-11.106v-9.412c0-6.134 4.972-11.106 11.106-11.106z"></path>
            <path d="M13.929 8.659h3.765c2.911 0 5.271 2.36 5.271 5.271v3.765c0 2.911-2.36 5.271-5.271 5.271h-3.765c-2.911 0-5.271-2.36-5.271-5.271v-3.765c0-2.911 2.36-5.271 5.271-5.271z"></path>
            <path fill="none" stroke-linejoin="miter" stroke-linecap="square" stroke-miterlimit="4" stroke-width="1.5059" d="M18.951 14.142l-3.716 3.716-1.858-1.858"></path>
        </symbol>
        
        <symbol id="icon-grid" viewBox="0 0 32 32">
            <path fill="none" stroke-linejoin="round" stroke-linecap="round" stroke-miterlimit="4" stroke-width="2.1333" d="M26.667 28.8c0 1.178 0.955 2.133 2.133 2.133s2.133-0.955 2.133-2.133c0-1.178-0.955-2.133-2.133-2.133s-2.133 0.955-2.133 2.133z"></path>
            <path fill="none" stroke-linejoin="round" stroke-linecap="round" stroke-miterlimit="4" stroke-width="2.1333" d="M13.867 28.8c0 1.178 0.955 2.133 2.133 2.133s2.133-0.955 2.133-2.133c0-1.178-0.955-2.133-2.133-2.133s-2.133 0.955-2.133 2.133z"></path>
            <path fill="none" stroke-linejoin="round" stroke-linecap="round" stroke-miterlimit="4" stroke-width="2.1333" d="M1.067 28.8c0 1.178 0.955 2.133 2.133 2.133s2.133-0.955 2.133-2.133c0-1.178-0.955-2.133-2.133-2.133s-2.133 0.955-2.133 2.133z"></path>
            <path fill="none" stroke-linejoin="round" stroke-linecap="round" stroke-miterlimit="4" stroke-width="2.1333" d="M26.667 16c0 1.178 0.955 2.133 2.133 2.133s2.133-0.955 2.133-2.133c0-1.178-0.955-2.133-2.133-2.133s-2.133 0.955-2.133 2.133z"></path>
            <path fill="none" stroke-linejoin="round" stroke-linecap="round" stroke-miterlimit="4" stroke-width="2.1333" d="M13.867 16c0 1.178 0.955 2.133 2.133 2.133s2.133-0.955 2.133-2.133c0-1.178-0.955-2.133-2.133-2.133s-2.133 0.955-2.133 2.133z"></path>
            <path fill="none" stroke-linejoin="round" stroke-linecap="round" stroke-miterlimit="4" stroke-width="2.1333" d="M1.067 16c0 1.178 0.955 2.133 2.133 2.133s2.133-0.955 2.133-2.133c0-1.178-0.955-2.133-2.133-2.133s-2.133 0.955-2.133 2.133z"></path>
            <path fill="none" stroke-linejoin="round" stroke-linecap="round" stroke-miterlimit="4" stroke-width="2.1333" d="M26.667 3.2c0 1.178 0.955 2.133 2.133 2.133s2.133-0.955 2.133-2.133c0-1.178-0.955-2.133-2.133-2.133s-2.133 0.955-2.133 2.133z"></path>
            <path fill="none" stroke-linejoin="round" stroke-linecap="round" stroke-miterlimit="4" stroke-width="2.1333" d="M13.867 3.2c0 1.178 0.955 2.133 2.133 2.133s2.133-0.955 2.133-2.133c0-1.178-0.955-2.133-2.133-2.133s-2.133 0.955-2.133 2.133z"></path>
            <path fill="none" stroke-linejoin="round" stroke-linecap="round" stroke-miterlimit="4" stroke-width="2.1333" d="M1.067 3.2c0 1.178 0.955 2.133 2.133 2.133s2.133-0.955 2.133-2.133c0-1.178-0.955-2.133-2.133-2.133s-2.133 0.955-2.133 2.133z"></path>
        </symbol>
        
        <symbol id="icon-chevron-down" viewBox="0 0 32 32">
            <path d="M29.569 8.617c0.919 0.823 0.964 2.199 0.099 3.074l-10.959 11.083c-1.583 1.6-4.21 1.6-5.792-0l-10.959-11.083c-0.865-0.875-0.821-2.251 0.099-3.074s2.366-0.781 3.231 0.094l10.526 10.644 10.526-10.644c0.865-0.875 2.311-0.917 3.231-0.094z"></path>
        </symbol>
        
        <symbol id="icon-chevron-right" viewBox="0 0 21 32">
            <path d="M3.985 1.409c0.917-0.975 2.452-1.022 3.427-0.104l12.354 11.623c1.784 1.679 1.784 4.465 0 6.143l-12.354 11.623c-0.975 0.917-2.509 0.871-3.427-0.104s-0.871-2.509 0.104-3.427l11.866-11.164-11.866-11.164c-0.975-0.917-1.022-2.452-0.104-3.427z"></path>
        </symbol>
        
        <symbol id="icon-chevron-left" viewBox="0 0 32 32">
            <path fill="none" stroke-linejoin="miter" stroke-linecap="butt" stroke-miterlimit="4" stroke-width="1.276" d="M15.352 1.026h0.667c8.116 0 14.695 6.579 14.695 14.695s-6.579 14.695-14.695 14.695h-0.667c-8.116 0-14.695-6.579-14.695-14.695s6.579-14.695 14.695-14.695z"></path>
            <path d="M17.57 20.957c-0.329 0.35-0.88 0.367-1.23 0.038l-4.434-4.171c-0.64-0.602-0.64-1.602 0-2.205l4.434-4.171c0.35-0.329 0.901-0.312 1.23 0.037s0.312 0.901-0.037 1.23l-4.258 4.006 4.258 4.006c0.35 0.329 0.367 0.88 0.037 1.23z"></path>
        </symbol>

        <symbol id="icon-warning" viewBox="0 0 32 32">
            <path fill="none" stroke-linejoin="round" stroke-linecap="round" stroke-miterlimit="4" stroke-width="3.0476" d="M16.058 10.573v6.095M16.058 29.696c-7.574 0-13.714-6.14-13.714-13.714s6.14-13.714 13.714-13.714c7.574 0 13.714 6.14 13.714 13.714s-6.14 13.714-13.714 13.714zM16.134 21.24v0.152l-0.152-0.001v-0.152h0.152z"></path>
        </symbol>
    </defs>
</svg>
