<svg aria-hidden="true" style="position: absolute; width: 0; height: 0; overflow: hidden;" version="1.1" xmlns="http://www.w3.org/2000/svg" xmlns:xlink="http://www.w3.org/1999/xlink">
<defs>
    <symbol id="icon-service-amazon" viewBox="0 0 32 32">
        <path d="M8.735 0.247h14.162c4.677 0 8.468 3.791 8.468 8.468v14.162c0 4.677-3.791 8.468-8.468 8.468h-14.162c-4.677 0-8.468-3.791-8.468-8.468v-14.162c0-4.677 3.791-8.468 8.468-8.468z"></path>
        <path fill="#fff" stroke="none" d="M11.428 15.948c0-0.781 0.181-1.416 0.542-1.906 0.361-0.497 0.832-0.864 1.413-1.103 0.587-0.239 1.213-0.358 1.877-0.358 0.29 0 0.655 0.006 1.094 0.019 0.445 0.013 0.845 0.055 1.2 0.126v1.916c-0.277-0.064-0.613-0.1-1.006-0.106-0.387-0.013-0.71-0.019-0.968-0.019-0.432 0-0.742 0.116-0.929 0.348-0.187 0.226-0.281 0.519-0.281 0.881 0 0.258 0.077 0.474 0.232 0.648 0.161 0.168 0.381 0.252 0.658 0.252 0.387 0 0.781-0.139 1.181-0.416s0.739-0.658 1.016-1.142l0.426 1.916c-0.252 0.297-0.539 0.59-0.861 0.881-0.323 0.284-0.7 0.519-1.132 0.706s-0.939 0.281-1.519 0.281c-0.664 0-1.216-0.145-1.655-0.435-0.432-0.297-0.755-0.668-0.968-1.113-0.213-0.452-0.319-0.91-0.319-1.374zM20.205 17.187c-0.052 0.271-0.171 0.561-0.358 0.871s-0.374 0.539-0.561 0.687c-0.568-0.013-1.039-0.142-1.413-0.387-0.368-0.245-0.652-0.545-0.852-0.9-0.194-0.361-0.319-0.713-0.377-1.055v-4.142c0-0.4-0.103-0.703-0.31-0.91-0.2-0.213-0.519-0.319-0.958-0.319-0.413 0-0.864 0.068-1.355 0.203-0.49 0.129-0.99 0.268-1.5 0.416-0.213-0.245-0.381-0.561-0.503-0.948-0.116-0.394-0.19-0.777-0.223-1.152 0.439-0.181 0.923-0.332 1.452-0.455 0.529-0.129 1.055-0.226 1.577-0.29 0.523-0.071 0.99-0.107 1.403-0.107 0.568 0 1.113 0.107 1.635 0.319 0.523 0.206 0.952 0.552 1.287 1.035 0.342 0.477 0.513 1.126 0.513 1.945v3.939c0 0.277 0.045 0.523 0.136 0.735s0.226 0.384 0.406 0.513z"></path>
        <path fill="#fff" stroke="none" d="M21.642 21.606c-1.69 1.248-4.148 1.912-6.268 1.912-2.97 0-5.633-1.094-7.661-2.914-0.154-0.143-0.021-0.337 0.174-0.225 2.182 1.268 4.875 2.025 7.661 2.025 1.874 0 3.943-0.389 5.848-1.196 0.287-0.112 0.522 0.194 0.246 0.399z"></path>
        <path fill="#fff" stroke="none" d="M22.741 20.52c-0.341-0.354-2.272-0.17-3.132-0.079-0.26 0.026-0.308-0.157-0.065-0.288 1.542-0.878 4.058-0.616 4.35-0.328s-0.081 2.332-1.526 3.301c-0.227 0.144-0.438 0.066-0.341-0.131 0.325-0.655 1.055-2.109 0.714-2.476z"></path>
    </symbol>
    <symbol id="icon-service-booking" viewBox="0 0 33 32">
        <path d="M9.355 0.247h14.055c4.677 0 8.468 3.791 8.468 8.468v14.162c0 4.677-3.791 8.468-8.468 8.468h-14.055c-4.677 0-8.468-3.791-8.468-8.468v-14.162c0-4.677 3.791-8.468 8.468-8.468z"></path>
        <path fill="#fff" stroke="none" d="M14.007 20.865l-2.579-0.003v-3.083c0-0.659 0.256-1.002 0.819-1.080h1.759c1.255 0 2.066 0.791 2.066 2.071 0 1.315-0.791 2.093-2.066 2.095zM11.428 12.549v-0.812c0-0.71 0.3-1.048 0.959-1.092h1.32c1.131 0 1.809 0.677 1.809 1.811 0 0.863-0.465 1.871-1.768 1.871h-2.321v-1.779zM17.299 15.626l-0.466-0.262 0.407-0.348c0.474-0.407 1.268-1.323 1.268-2.902 0-2.419-1.876-3.98-4.78-3.98l-3.691-0.001c-0.86 0.032-1.55 0.732-1.559 1.598v13.728h5.315c3.227 0 5.31-1.757 5.31-4.478 0-1.465-0.673-2.717-1.804-3.354z"></path>
        <path fill="#fff" stroke="none" d="M20.488 21.562c0-1.049 0.846-1.897 1.888-1.897 1.045 0 1.894 0.848 1.894 1.897 0 1.047-0.85 1.897-1.894 1.897-1.042 0-1.888-0.85-1.888-1.897z"></path>
    </symbol>
    <symbol id="icon-service-ebay" viewBox="0 0 32 32">
        <path d="M8.735 0.247h14.162c4.677 0 8.468 3.791 8.468 8.468v14.162c0 4.677-3.791 8.468-8.468 8.468h-14.162c-4.677 0-8.468-3.791-8.468-8.468v-14.162c0-4.677 3.791-8.468 8.468-8.468z"></path>
        <path fill="#fff" stroke="none" d="M16.172 23.93c-1.63 0-3.062-0.333-4.297-0.999-1.225-0.675-2.182-1.613-2.87-2.811-0.678-1.208-1.017-2.607-1.017-4.196 0-1.684 0.334-3.144 1.002-4.381 0.678-1.237 1.62-2.193 2.824-2.868s2.607-1.013 4.206-1.013c1.67 0 3.093 0.366 4.267 1.099 1.174 0.723 2.050 1.755 2.627 3.097 0.587 1.341 0.82 2.935 0.698 4.781h-3.174v-1.085c-0.020-1.789-0.385-3.111-1.093-3.967-0.699-0.856-1.767-1.284-3.204-1.284-1.589 0-2.784 0.471-3.584 1.413s-1.2 2.302-1.2 4.081c0 1.693 0.4 3.006 1.2 3.939 0.8 0.923 1.954 1.384 3.462 1.384 0.992 0 1.848-0.209 2.566-0.628 0.729-0.428 1.296-1.037 1.701-1.827l3.113 0.928c-0.638 1.38-1.605 2.45-2.9 3.211-1.296 0.752-2.738 1.127-4.328 1.127zM10.325 16.638v-2.326h11.708v2.326h-11.708z"></path>
    </symbol>
    <symbol id="icon-service-facebook" viewBox="0 0 32 32">
        <path d="M8.735 0.247h14.162c4.677 0 8.468 3.791 8.468 8.468v14.162c0 4.677-3.791 8.468-8.468 8.468h-14.162c-4.677 0-8.468-3.791-8.468-8.468v-14.162c0-4.677 3.791-8.468 8.468-8.468z"></path>
        <path fill="#fff" stroke="none" d="M15.815 7.626c-4.512 0-8.17 3.658-8.17 8.17 0 3.832 2.638 7.047 6.197 7.93v-5.433h-1.685v-2.497h1.685v-1.076c0-2.781 1.259-4.070 3.989-4.070 0.518 0 1.411 0.102 1.776 0.203v2.263c-0.193-0.020-0.528-0.030-0.944-0.030-1.34 0-1.857 0.508-1.857 1.827v0.883h2.669l-0.459 2.497h-2.21v5.614c4.046-0.489 7.18-3.933 7.18-8.11-0-4.512-3.658-8.17-8.171-8.17z"></path>
    </symbol>
    <symbol id="icon-service-google" viewBox="0 0 32 32">
        <path d="M8.735 0.247h14.162c4.677 0 8.468 3.791 8.468 8.468v14.162c0 4.677-3.791 8.468-8.468 8.468h-14.162c-4.677 0-8.468-3.791-8.468-8.468v-14.162c0-4.677 3.791-8.468 8.468-8.468z"></path>
        <path fill="#fff" stroke="none" d="M15.816 14.311v3.164h4.397c-0.193 1.018-0.773 1.879-1.642 2.459l2.652 2.057c1.545-1.426 2.436-3.521 2.436-6.009 0-0.579-0.052-1.136-0.149-1.671l-7.695-0z"></path>
        <path fill="#fff" stroke="none" d="M11.237 17.351l-0.598 0.458-2.117 1.649c1.344 2.666 4.1 4.509 7.294 4.509 2.206 0 4.055-0.728 5.407-1.976l-2.652-2.057c-0.728 0.49-1.656 0.787-2.756 0.787-2.124 0-3.929-1.433-4.575-3.365l-0.003-0.005z"></path>
        <path fill="#fff" stroke="none" d="M8.522 12.134c-0.557 1.099-0.876 2.34-0.876 3.662s0.319 2.562 0.876 3.662c0 0.007 2.719-2.109 2.719-2.109-0.163-0.49-0.26-1.010-0.26-1.552s0.097-1.062 0.26-1.552l-2.719-2.109z"></path>
        <path fill="#fff" stroke="none" d="M15.816 10.879c1.203 0 2.273 0.416 3.127 1.218l2.34-2.34c-1.419-1.322-3.261-2.132-5.467-2.132-3.194 0-5.949 1.835-7.294 4.508l2.718 2.109c0.646-1.931 2.451-3.365 4.575-3.365z"></path>
    </symbol>
    <symbol id="icon-service-instagram" viewBox="0 0 32 32">
        <path d="M8.735 0.247h14.162c4.677 0 8.468 3.791 8.468 8.468v14.162c0 4.677-3.791 8.468-8.468 8.468h-14.162c-4.677 0-8.468-3.791-8.468-8.468v-14.162c0-4.677 3.791-8.468 8.468-8.468z"></path>
        <path fill="#fff" stroke="none" d="M15.815 9.097c2.183 0 2.442 0.010 3.3 0.048 0.798 0.035 1.229 0.169 1.516 0.281 0.38 0.147 0.654 0.326 0.938 0.61 0.287 0.287 0.463 0.559 0.61 0.938 0.112 0.287 0.246 0.721 0.281 1.516 0.038 0.862 0.048 1.12 0.048 3.3 0 2.183-0.010 2.442-0.048 3.3-0.035 0.798-0.169 1.229-0.281 1.516-0.147 0.38-0.326 0.654-0.61 0.938-0.287 0.287-0.558 0.463-0.938 0.61-0.287 0.112-0.721 0.246-1.516 0.281-0.862 0.038-1.12 0.048-3.3 0.048-2.183 0-2.441-0.010-3.3-0.048-0.798-0.035-1.229-0.169-1.516-0.281-0.38-0.147-0.654-0.326-0.938-0.61-0.287-0.287-0.463-0.558-0.61-0.938-0.112-0.287-0.246-0.721-0.281-1.516-0.038-0.862-0.048-1.12-0.048-3.3 0-2.183 0.010-2.441 0.048-3.3 0.035-0.798 0.169-1.229 0.281-1.516 0.147-0.38 0.326-0.654 0.61-0.938 0.287-0.287 0.559-0.463 0.938-0.61 0.287-0.112 0.721-0.246 1.516-0.281 0.859-0.038 1.117-0.048 3.3-0.048zM15.815 7.626c-2.218 0-2.496 0.010-3.367 0.048-0.868 0.038-1.465 0.179-1.982 0.38-0.539 0.211-0.996 0.488-1.449 0.945-0.456 0.453-0.734 0.91-0.945 1.446-0.201 0.52-0.341 1.114-0.38 1.982-0.038 0.874-0.048 1.152-0.048 3.37s0.010 2.496 0.048 3.367c0.038 0.868 0.179 1.465 0.38 1.982 0.211 0.539 0.488 0.996 0.945 1.449 0.453 0.453 0.91 0.734 1.446 0.941 0.52 0.201 1.114 0.341 1.982 0.38 0.871 0.038 1.149 0.048 3.367 0.048s2.496-0.010 3.367-0.048c0.868-0.038 1.465-0.179 1.982-0.38 0.536-0.207 0.993-0.488 1.446-0.941s0.734-0.91 0.941-1.446c0.201-0.52 0.341-1.114 0.38-1.982 0.038-0.871 0.048-1.149 0.048-3.367s-0.010-2.496-0.048-3.367c-0.038-0.868-0.179-1.465-0.38-1.982-0.201-0.543-0.479-0.999-0.935-1.452-0.453-0.453-0.91-0.734-1.446-0.941-0.52-0.201-1.114-0.341-1.982-0.38-0.875-0.041-1.152-0.051-3.37-0.051z"></path>
        <path fill="#fff" stroke="none" d="M15.815 11.599c-2.317 0-4.197 1.88-4.197 4.197s1.88 4.197 4.197 4.197c2.317 0 4.197-1.88 4.197-4.197s-1.88-4.197-4.197-4.197zM15.815 18.518c-1.503 0-2.722-1.219-2.722-2.722s1.219-2.722 2.722-2.722c1.503 0 2.722 1.219 2.722 2.722s-1.219 2.722-2.722 2.722z"></path>
        <path fill="#fff" stroke="none" d="M21.158 11.433c0 0.543-0.44 0.98-0.98 0.98-0.543 0-0.98-0.44-0.98-0.98 0-0.543 0.44-0.98 0.98-0.98s0.98 0.44 0.98 0.98z"></path>
    </symbol>
    <symbol id="icon-service-linkedin" viewBox="0 0 32 32">
        <path d="M8.735 0.247h14.162c4.677 0 8.468 3.791 8.468 8.468v14.162c0 4.677-3.791 8.468-8.468 8.468h-14.162c-4.677 0-8.468-3.791-8.468-8.468v-14.162c0-4.677 3.791-8.468 8.468-8.468z"></path>
        <path fill="#fff" stroke="none" d="M22.776 7.626h-13.925c-0.667 0-1.206 0.527-1.206 1.178v13.982c0 0.651 0.539 1.181 1.206 1.181h13.925c0.667 0 1.21-0.53 1.21-1.178v-13.985c0-0.651-0.543-1.178-1.21-1.178zM12.493 21.55h-2.426v-7.8h2.426v7.8zM11.28 12.687c-0.779 0-1.407-0.629-1.407-1.404s0.629-1.404 1.407-1.404c0.775 0 1.404 0.629 1.404 1.404 0 0.772-0.629 1.404-1.404 1.404zM21.569 21.55h-2.422v-3.791c0-0.903-0.016-2.068-1.261-2.068-1.261 0-1.452 0.986-1.452 2.004v3.855h-2.419v-7.8h2.323v1.066h0.032c0.322-0.613 1.114-1.261 2.292-1.261 2.454 0 2.907 1.615 2.907 3.715v4.28z"></path>
    </symbol>
    <symbol id="icon-service-tiktok" viewBox="0 0 32 32">
        <path d="M8.735 0.247h14.162c4.677 0 8.468 3.791 8.468 8.468v14.162c0 4.677-3.791 8.468-8.468 8.468h-14.162c-4.677 0-8.468-3.791-8.468-8.468v-14.162c0-4.677 3.791-8.468 8.468-8.468z"></path>
        <path fill="#fff" stroke="none" d="M19.269 7.626h-2.754v11.13c0 1.326-1.059 2.416-2.377 2.416s-2.377-1.089-2.377-2.416c0-1.302 1.036-2.368 2.307-2.416v-2.794c-2.801 0.047-5.060 2.345-5.060 5.21 0 2.889 2.307 5.21 5.155 5.21s5.155-2.345 5.155-5.21v-5.707c1.036 0.758 2.307 1.208 3.648 1.231v-2.795c-2.071-0.071-3.695-1.776-3.695-3.86z"></path>
    </symbol>
    <symbol id="icon-service-twitter" viewBox="0 0 32 32">
        <path d="M8.735 0.247h14.162c4.677 0 8.468 3.791 8.468 8.468v14.162c0 4.677-3.791 8.468-8.468 8.468h-14.162c-4.677 0-8.468-3.791-8.468-8.468v-14.162c0-4.677 3.791-8.468 8.468-8.468z"></path>
        <path fill="#fff" stroke="none" d="M20.123 8.922h2.297l-5.018 5.735 5.903 7.804h-4.622l-3.62-4.733-4.142 4.733h-2.298l5.367-6.134-5.663-7.405h4.739l3.272 4.326 3.785-4.326zM19.317 21.086h1.273l-8.215-10.862h-1.366l8.308 10.862z"></path>
    </symbol>
    <symbol id="icon-service-youtube" viewBox="0 0 33 32">
        <path d="M9.355 0.247h14.055c4.677 0 8.468 3.791 8.468 8.468v14.162c0 4.677-3.791 8.468-8.468 8.468h-14.055c-4.677 0-8.468-3.791-8.468-8.468v-14.162c0-4.677 3.791-8.468 8.468-8.468z"></path>
        <path fill="#fff" stroke="none" d="M24.389 12.528c0 0-0.16-1.127-0.651-1.621-0.622-0.651-1.318-0.654-1.637-0.693-2.285-0.166-5.716-0.166-5.716-0.166h-0.006c0 0-3.431 0-5.716 0.166-0.319 0.038-1.015 0.041-1.637 0.693-0.492 0.495-0.648 1.621-0.648 1.621s-0.166 1.324-0.166 2.646v1.238c0 1.321 0.163 2.646 0.163 2.646s0.16 1.127 0.648 1.621c0.622 0.651 1.439 0.629 1.803 0.699 1.309 0.125 5.556 0.163 5.556 0.163s3.434-0.006 5.719-0.169c0.319-0.038 1.015-0.042 1.637-0.693 0.491-0.495 0.651-1.621 0.651-1.621s0.163-1.321 0.163-2.646v-1.238c0-1.321-0.163-2.646-0.163-2.646zM14.693 17.915v-4.593l4.414 2.304-4.414 2.288z"></path>
    </symbol>
</defs>
</svg>
