<svg aria-hidden="true" style="position: absolute; width: 0; height: 0; overflow: hidden;" version="1.1" xmlns="http://www.w3.org/2000/svg" xmlns:xlink="http://www.w3.org/1999/xlink">
    <defs>
    <symbol id="icon-card-plus_affiliate_1" viewBox="0 0 32 32">
        <path fill="#2e7af5" style="fill: var(--color1, #2e7af5)" d="M6.289 4.874c0 0.836-0.678 1.514-1.514 1.514s-1.514-0.678-1.514-1.514c0-0.836 0.678-1.514 1.514-1.514s1.514 0.678 1.514 1.514z"></path>
        <path fill="#2e7af5" style="fill: var(--color1, #2e7af5)" d="M6.289 15.75c0 0.836-0.678 1.514-1.514 1.514s-1.514-0.678-1.514-1.514c0-0.836 0.678-1.514 1.514-1.514s1.514 0.678 1.514 1.514z"></path>
        <path fill="#17263f" style="fill: var(--color2, #17263f)" d="M17.883 15.75c0 0.836-0.678 1.514-1.514 1.514s-1.514-0.678-1.514-1.514c0-0.836 0.678-1.514 1.514-1.514s1.514 0.678 1.514 1.514z"></path>
        <path fill="#17263f" style="fill: var(--color2, #17263f)" d="M28.35 4.874c0 0.836-0.678 1.514-1.514 1.514s-1.514-0.678-1.514-1.514c0-0.836 0.678-1.514 1.514-1.514s1.514 0.678 1.514 1.514z"></path>
        <path fill="#2e7af5" style="fill: var(--color1, #2e7af5)" d="M6.289 26.627c0 0.836-0.678 1.514-1.514 1.514s-1.514-0.678-1.514-1.514c0-0.836 0.678-1.514 1.514-1.514s1.514 0.678 1.514 1.514z"></path>
    </symbol>
    
    <symbol id="icon-card-plus_affiliate_2" viewBox="0 0 32 32">
        <path fill="#2e7af5" style="fill: var(--color1, #2e7af5)" d="M6.289 4.874c0 0.836-0.678 1.514-1.514 1.514s-1.514-0.678-1.514-1.514c0-0.836 0.678-1.514 1.514-1.514s1.514 0.678 1.514 1.514z"></path>
        <path fill="#2e7af5" style="fill: var(--color1, #2e7af5)" d="M28.35 16c0 0.836-0.678 1.514-1.514 1.514s-1.514-0.678-1.514-1.514c0-0.836 0.678-1.514 1.514-1.514s1.514 0.678 1.514 1.514z"></path>
        <path fill="#2e7af5" style="fill: var(--color1, #2e7af5)" d="M28.35 26.627c0 0.836-0.678 1.514-1.514 1.514s-1.514-0.678-1.514-1.514c0-0.836 0.678-1.514 1.514-1.514s1.514 0.678 1.514 1.514z"></path>
        <path fill="#17263f" style="fill: var(--color2, #17263f)" d="M6.289 15.75c0 0.836-0.678 1.514-1.514 1.514s-1.514-0.678-1.514-1.514c0-0.836 0.678-1.514 1.514-1.514s1.514 0.678 1.514 1.514z"></path>
        <path fill="#17263f" style="fill: var(--color2, #17263f)" d="M28.35 4.874c0 0.836-0.678 1.514-1.514 1.514s-1.514-0.678-1.514-1.514c0-0.836 0.678-1.514 1.514-1.514s1.514 0.678 1.514 1.514z"></path>
        <path fill="#2e7af5" style="fill: var(--color1, #2e7af5)" d="M6.289 26.627c0 0.836-0.678 1.514-1.514 1.514s-1.514-0.678-1.514-1.514c0-0.836 0.678-1.514 1.514-1.514s1.514 0.678 1.514 1.514z"></path>
    </symbol>
    
    <symbol id="icon-card-plus_affiliate_3" viewBox="0 0 32 32">
        <path fill="#2e7af5" style="fill: var(--color1, #2e7af5)" d="M6.289 4.874c0 0.836-0.678 1.514-1.514 1.514s-1.514-0.678-1.514-1.514c0-0.836 0.678-1.514 1.514-1.514s1.514 0.678 1.514 1.514z"></path>
        <path fill="#2e7af5" style="fill: var(--color1, #2e7af5)" d="M17.883 15.75c0 0.836-0.678 1.514-1.514 1.514s-1.514-0.678-1.514-1.514c0-0.836 0.678-1.514 1.514-1.514s1.514 0.678 1.514 1.514z"></path>
        <path fill="#17263f" style="fill: var(--color2, #17263f)" d="M17.883 4.874c0 0.836-0.678 1.514-1.514 1.514s-1.514-0.678-1.514-1.514c0-0.836 0.678-1.514 1.514-1.514s1.514 0.678 1.514 1.514z"></path>
        <path fill="#17263f" style="fill: var(--color2, #17263f)" d="M28.35 4.874c0 0.836-0.678 1.514-1.514 1.514s-1.514-0.678-1.514-1.514c0-0.836 0.678-1.514 1.514-1.514s1.514 0.678 1.514 1.514z"></path>
        <path fill="#2e7af5" style="fill: var(--color1, #2e7af5)" d="M6.289 26.627c0 0.836-0.678 1.514-1.514 1.514s-1.514-0.678-1.514-1.514c0-0.836 0.678-1.514 1.514-1.514s1.514 0.678 1.514 1.514z"></path>
    </symbol>
    
    <symbol id="icon-card-plus_affiliate_4" viewBox="0 0 32 32">
        <path fill="#2e7af5" style="fill: var(--color1, #2e7af5)" d="M6.289 4.874c0 0.836-0.678 1.514-1.514 1.514s-1.514-0.678-1.514-1.514c0-0.836 0.678-1.514 1.514-1.514s1.514 0.678 1.514 1.514z"></path>
        <path fill="#2e7af5" style="fill: var(--color1, #2e7af5)" d="M28.35 15.75c0 0.836-0.678 1.514-1.514 1.514s-1.514-0.678-1.514-1.514c0-0.836 0.678-1.514 1.514-1.514s1.514 0.678 1.514 1.514z"></path>
        <path fill="#17263f" style="fill: var(--color2, #17263f)" d="M17.883 26.627c0 0.836-0.678 1.514-1.514 1.514s-1.514-0.678-1.514-1.514c0-0.836 0.678-1.514 1.514-1.514s1.514 0.678 1.514 1.514z"></path>
        <path fill="#2e7af5" style="fill: var(--color1, #2e7af5)" d="M28.35 4.874c0 0.836-0.678 1.514-1.514 1.514s-1.514-0.678-1.514-1.514c0-0.836 0.678-1.514 1.514-1.514s1.514 0.678 1.514 1.514z"></path>
        <path fill="#2e7af5" style="fill: var(--color1, #2e7af5)" d="M6.289 26.627c0 0.836-0.678 1.514-1.514 1.514s-1.514-0.678-1.514-1.514c0-0.836 0.678-1.514 1.514-1.514s1.514 0.678 1.514 1.514z"></path>
    </symbol>
    
    <symbol id="icon-card-plus_affiliate_5" viewBox="0 0 32 32">
        <path fill="#17263f" style="fill: var(--color2, #17263f)" d="M6.289 26.627c0 0.836-0.678 1.514-1.514 1.514s-1.514-0.678-1.514-1.514c0-0.836 0.678-1.514 1.514-1.514s1.514 0.678 1.514 1.514z"></path>
        <path fill="#17263f" style="fill: var(--color2, #17263f)" d="M6.289 4.873c0 0.836-0.678 1.514-1.514 1.514s-1.514-0.678-1.514-1.514c0-0.836 0.678-1.514 1.514-1.514s1.514 0.678 1.514 1.514z"></path>
        <path fill="#2e7af5" style="fill: var(--color1, #2e7af5)" d="M6.289 15.75c0 0.836-0.678 1.514-1.514 1.514s-1.514-0.678-1.514-1.514c0-0.836 0.678-1.514 1.514-1.514s1.514 0.678 1.514 1.514z"></path>
        <path fill="#2e7af5" style="fill: var(--color1, #2e7af5)" d="M17.883 15.75c0 0.836-0.678 1.514-1.514 1.514s-1.514-0.678-1.514-1.514c0-0.836 0.678-1.514 1.514-1.514s1.514 0.678 1.514 1.514z"></path>
        <path fill="#17263f" style="fill: var(--color2, #17263f)" d="M28.35 4.874c0 0.836-0.678 1.514-1.514 1.514s-1.514-0.678-1.514-1.514c0-0.836 0.678-1.514 1.514-1.514s1.514 0.678 1.514 1.514z"></path>
        <path fill="#2e7af5" style="fill: var(--color1, #2e7af5)" d="M28.35 26.627c0 0.836-0.678 1.514-1.514 1.514s-1.514-0.678-1.514-1.514c0-0.836 0.678-1.514 1.514-1.514s1.514 0.678 1.514 1.514z"></path>
    </symbol>
    
    <symbol id="icon-card-plus_affiliate_6" viewBox="0 0 32 32">
        <path fill="#17263f" style="fill: var(--color2, #17263f)" d="M6.289 26.627c0 0.836-0.678 1.514-1.514 1.514s-1.514-0.678-1.514-1.514c0-0.836 0.678-1.514 1.514-1.514s1.514 0.678 1.514 1.514z"></path>
        <path fill="#17263f" style="fill: var(--color2, #17263f)" d="M6.289 4.873c0 0.836-0.678 1.514-1.514 1.514s-1.514-0.678-1.514-1.514c0-0.836 0.678-1.514 1.514-1.514s1.514 0.678 1.514 1.514z"></path>
        <path fill="#2e7af5" style="fill: var(--color1, #2e7af5)" d="M17.268 15.75c0 0.836-0.678 1.514-1.514 1.514s-1.514-0.678-1.514-1.514c0-0.836 0.678-1.514 1.514-1.514s1.514 0.678 1.514 1.514z"></path>
        <path fill="#2e7af5" style="fill: var(--color1, #2e7af5)" d="M28.35 15.75c0 0.836-0.678 1.514-1.514 1.514s-1.514-0.678-1.514-1.514c0-0.836 0.678-1.514 1.514-1.514s1.514 0.678 1.514 1.514z"></path>
        <path fill="#17263f" style="fill: var(--color2, #17263f)" d="M28.35 4.874c0 0.836-0.678 1.514-1.514 1.514s-1.514-0.678-1.514-1.514c0-0.836 0.678-1.514 1.514-1.514s1.514 0.678 1.514 1.514z"></path>
        <path fill="#17263f" style="fill: var(--color2, #17263f)" d="M17.268 4.874c0 0.836-0.678 1.514-1.514 1.514s-1.514-0.678-1.514-1.514c0-0.836 0.678-1.514 1.514-1.514s1.514 0.678 1.514 1.514z"></path>
        <path fill="#2e7af5" style="fill: var(--color1, #2e7af5)" d="M28.35 26.627c0 0.836-0.678 1.514-1.514 1.514s-1.514-0.678-1.514-1.514c0-0.836 0.678-1.514 1.514-1.514s1.514 0.678 1.514 1.514z"></path>
    </symbol>
    </defs>
</svg>
