<svg aria-hidden="true" style="position: absolute; width: 0; height: 0; overflow: hidden;" version="1.1" xmlns="http://www.w3.org/2000/svg" xmlns:xlink="http://www.w3.org/1999/xlink">
    <defs>
        <symbol id="icon-plus_1" viewBox="0 0 32 32">
            <path fill="#17263f" style="fill: var(--color1, #17263f)" d="M12.13 12.506c0 0.836-0.678 1.513-1.513 1.513s-1.513-0.678-1.513-1.513c0-0.836 0.678-1.513 1.513-1.513s1.513 0.678 1.513 1.513z"></path>
            <path fill="#2e7af5" style="fill: var(--color2, #2e7af5)" d="M15.518 9.029c0 0.836-0.678 1.513-1.513 1.513s-1.513-0.678-1.513-1.513c0-0.836 0.678-1.513 1.513-1.513s1.513 0.678 1.513 1.513z"></path>
            <path fill="#2e7af5" style="fill: var(--color2, #2e7af5)" d="M8.648 26.334c0 0.836-0.678 1.513-1.513 1.513s-1.513-0.678-1.513-1.513c0-0.836 0.678-1.513 1.513-1.513s1.513 0.678 1.513 1.513z"></path>
            <path fill="#2e7af5" style="fill: var(--color2, #2e7af5)" d="M19.009 26.334c0 0.836-0.678 1.513-1.513 1.513s-1.513-0.678-1.513-1.513c0-0.836 0.678-1.513 1.513-1.513s1.513 0.678 1.513 1.513z"></path>
            <path fill="#2e7af5" style="fill: var(--color2, #2e7af5)" d="M19.009 12.506c0 0.836-0.678 1.513-1.513 1.513s-1.513-0.678-1.513-1.513c0-0.836 0.678-1.513 1.513-1.513s1.513 0.678 1.513 1.513z"></path>
            <path fill="#2e7af5" style="fill: var(--color2, #2e7af5)" d="M19.009 5.591c0 0.836-0.678 1.513-1.513 1.513s-1.513-0.678-1.513-1.513c0-0.836 0.678-1.513 1.513-1.513s1.513 0.678 1.513 1.513z"></path>
            <path fill="#17263f" style="fill: var(--color1, #17263f)" d="M25.887 26.334c0 0.836-0.678 1.513-1.513 1.513s-1.513-0.678-1.513-1.513c0-0.836 0.678-1.513 1.513-1.513s1.513 0.678 1.513 1.513z"></path>
            <path fill="#2e7af5" style="fill: var(--color2, #2e7af5)" d="M19.009 19.42c0 0.836-0.678 1.513-1.513 1.513s-1.513-0.678-1.513-1.513c0-0.836 0.678-1.513 1.513-1.513s1.513 0.678 1.513 1.513z"></path>
        </symbol>
        
        <symbol id="icon-plus_2" viewBox="0 0 32 32">
            <path fill="#2e7af5" style="fill: var(--color2, #2e7af5)" d="M20.258 15.941c0 0.836-0.678 1.513-1.513 1.513s-1.513-0.678-1.513-1.513c0-0.836 0.678-1.513 1.513-1.513s1.513 0.678 1.513 1.513z"></path>
            <path fill="#17263f" style="fill: var(--color1, #17263f)" d="M6.871 5.67c0 0.836-0.678 1.513-1.513 1.513s-1.513-0.678-1.513-1.513c0-0.836 0.678-1.513 1.513-1.513s1.513 0.678 1.513 1.513z"></path>
            <path fill="#2e7af5" style="fill: var(--color2, #2e7af5)" d="M6.854 26.275c0 0.836-0.678 1.513-1.513 1.513s-1.513-0.678-1.513-1.513c0-0.836 0.678-1.513 1.513-1.513s1.513 0.678 1.513 1.513z"></path>
            <path fill="#2e7af5" style="fill: var(--color2, #2e7af5)" d="M13.785 19.206c0 0.836-0.678 1.513-1.513 1.513s-1.513-0.678-1.513-1.513c0-0.836 0.678-1.513 1.513-1.513s1.513 0.678 1.513 1.513z"></path>
            <path fill="#2e7af5" style="fill: var(--color2, #2e7af5)" d="M20.65 5.607c0 0.836-0.678 1.513-1.513 1.513s-1.513-0.678-1.513-1.513c0-0.836 0.678-1.513 1.513-1.513s1.513 0.678 1.513 1.513z"></path>
            <path fill="#2e7af5" style="fill: var(--color2, #2e7af5)" d="M27.569 5.591c0 0.836-0.678 1.513-1.513 1.513s-1.513-0.678-1.513-1.513c0-0.836 0.678-1.513 1.513-1.513s1.513 0.678 1.513 1.513z"></path>
            <path fill="#2e7af5" style="fill: var(--color2, #2e7af5)" d="M13.822 5.591c0 0.836-0.678 1.513-1.513 1.513s-1.513-0.678-1.513-1.513c0-0.836 0.678-1.513 1.513-1.513s1.513 0.678 1.513 1.513z"></path>
            <path fill="#17263f" style="fill: var(--color1, #17263f)" d="M13.785 26.275c0 0.836-0.678 1.513-1.513 1.513s-1.513-0.678-1.513-1.513c0-0.836 0.678-1.513 1.513-1.513s1.513 0.678 1.513 1.513z"></path>
            <path fill="#17263f" style="fill: var(--color1, #17263f)" d="M27.569 12.733c0 0.836-0.678 1.513-1.513 1.513s-1.513-0.678-1.513-1.513c0-0.836 0.678-1.513 1.513-1.513s1.513 0.678 1.513 1.513z"></path>
            <path fill="#2e7af5" style="fill: var(--color2, #2e7af5)" d="M20.677 26.275c0 0.836-0.678 1.513-1.513 1.513s-1.513-0.678-1.513-1.513c0-0.836 0.678-1.513 1.513-1.513s1.513 0.678 1.513 1.513z"></path>
            <path fill="#2e7af5" style="fill: var(--color2, #2e7af5)" d="M27.15 26.517c0 0.836-0.678 1.513-1.513 1.513s-1.513-0.678-1.513-1.513c0-0.836 0.678-1.513 1.513-1.513s1.513 0.678 1.513 1.513z"></path>
        </symbol>
        
        <symbol id="icon-plus_3" viewBox="0 0 32 32">
            <path fill="#2e7af5" style="fill: var(--color2, #2e7af5)" d="M20.258 12.314c0 0.836-0.678 1.513-1.513 1.513s-1.513-0.678-1.513-1.513c0-0.836 0.678-1.513 1.513-1.513s1.513 0.678 1.513 1.513z"></path>
            <path fill="#2e7af5" style="fill: var(--color2, #2e7af5)" d="M20.258 19.625c0 0.836-0.678 1.513-1.513 1.513s-1.513-0.678-1.513-1.513c0-0.836 0.678-1.513 1.513-1.513s1.513 0.678 1.513 1.513z"></path>
            <path fill="#17263f" style="fill: var(--color1, #17263f)" d="M6.695 5.638c0 0.836-0.678 1.513-1.513 1.513s-1.513-0.678-1.513-1.513c0-0.836 0.678-1.513 1.513-1.513s1.513 0.678 1.513 1.513z"></path>
            <path fill="#2e7af5" style="fill: var(--color2, #2e7af5)" d="M6.678 26.243c0 0.836-0.678 1.513-1.513 1.513s-1.513-0.678-1.513-1.513c0-0.836 0.678-1.513 1.513-1.513s1.513 0.678 1.513 1.513z"></path>
            <path fill="#2e7af5" style="fill: var(--color2, #2e7af5)" d="M20.475 5.575c0 0.836-0.678 1.513-1.513 1.513s-1.513-0.678-1.513-1.513c0-0.836 0.678-1.513 1.513-1.513s1.513 0.678 1.513 1.513z"></path>
            <path fill="#2e7af5" style="fill: var(--color2, #2e7af5)" d="M13.646 5.559c0 0.836-0.678 1.513-1.513 1.513s-1.513-0.678-1.513-1.513c0-0.836 0.678-1.513 1.513-1.513s1.513 0.678 1.513 1.513z"></path>
            <path fill="#17263f" style="fill: var(--color1, #17263f)" d="M13.609 26.243c0 0.836-0.678 1.513-1.513 1.513s-1.513-0.678-1.513-1.513c0-0.836 0.678-1.513 1.513-1.513s1.513 0.678 1.513 1.513z"></path>
            <path fill="#2e7af5" style="fill: var(--color2, #2e7af5)" d="M27.324 5.601c0 0.836-0.678 1.513-1.513 1.513s-1.513-0.678-1.513-1.513c0-0.836 0.678-1.513 1.513-1.513s1.513 0.678 1.513 1.513z"></path>
            <path fill="#17263f" style="fill: var(--color1, #17263f)" d="M13.609 15.902c0 0.836-0.678 1.513-1.513 1.513s-1.513-0.678-1.513-1.513c0-0.836 0.678-1.513 1.513-1.513s1.513 0.678 1.513 1.513z"></path>
            <path fill="#2e7af5" style="fill: var(--color2, #2e7af5)" d="M20.501 26.243c0 0.836-0.678 1.513-1.513 1.513s-1.513-0.678-1.513-1.513c0-0.836 0.678-1.513 1.513-1.513s1.513 0.678 1.513 1.513z"></path>
            <path fill="#2e7af5" style="fill: var(--color2, #2e7af5)" d="M27.432 26.517c0 0.836-0.678 1.513-1.513 1.513s-1.513-0.678-1.513-1.513c0-0.836 0.678-1.513 1.513-1.513s1.513 0.678 1.513 1.513z"></path>
        </symbol>
        
        <symbol id="icon-plus_4" viewBox="0 0 32 32">
            <path fill="#17263f" style="fill: var(--color1, #17263f)" d="M27.338 19.39c0 0.836-0.678 1.513-1.513 1.513s-1.513-0.678-1.513-1.513c0-0.836 0.678-1.513 1.513-1.513s1.513 0.678 1.513 1.513z"></path>
            <path fill="#17263f" style="fill: var(--color1, #17263f)" d="M6.667 5.562c0 0.836-0.678 1.513-1.513 1.513s-1.513-0.678-1.513-1.513c0-0.836 0.678-1.513 1.513-1.513s1.513 0.678 1.513 1.513z"></path>
            <path fill="#2e7af5" style="fill: var(--color2, #2e7af5)" d="M27.357 5.597c0 0.836-0.678 1.513-1.513 1.513s-1.513-0.678-1.513-1.513c0-0.836 0.678-1.513 1.513-1.513s1.513 0.678 1.513 1.513z"></path>
            <path fill="#2e7af5" style="fill: var(--color2, #2e7af5)" d="M6.676 12.541c0 0.836-0.678 1.513-1.513 1.513s-1.513-0.678-1.513-1.513c0-0.836 0.678-1.513 1.513-1.513s1.513 0.678 1.513 1.513z"></path>
            <path fill="#2e7af5" style="fill: var(--color2, #2e7af5)" d="M27.318 12.538c0 0.836-0.678 1.513-1.513 1.513s-1.513-0.678-1.513-1.513c0-0.836 0.678-1.513 1.513-1.513s1.513 0.678 1.513 1.513z"></path>
            <path fill="#2e7af5" style="fill: var(--color2, #2e7af5)" d="M13.543 19.39c0 0.836-0.678 1.513-1.513 1.513s-1.513-0.678-1.513-1.513c0-0.836 0.678-1.513 1.513-1.513s1.513 0.678 1.513 1.513z"></path>
            <path fill="#2e7af5" style="fill: var(--color2, #2e7af5)" d="M6.659 19.39c0 0.836-0.678 1.513-1.513 1.513s-1.513-0.678-1.513-1.513c0-0.836 0.678-1.513 1.513-1.513s1.513 0.678 1.513 1.513z"></path>
            <path fill="#2e7af5" style="fill: var(--color2, #2e7af5)" d="M27.338 26.297c0 0.836-0.678 1.513-1.513 1.513s-1.513-0.678-1.513-1.513c0-0.836 0.678-1.513 1.513-1.513s1.513 0.678 1.513 1.513z"></path>
            <path fill="#2e7af5" style="fill: var(--color2, #2e7af5)" d="M20.477 19.39c0 0.836-0.678 1.513-1.513 1.513s-1.513-0.678-1.513-1.513c0-0.836 0.678-1.513 1.513-1.513s1.513 0.678 1.513 1.513z"></path>
        </symbol>
        
        <symbol id="icon-plus_5" viewBox="0 0 32 32">
            <path fill="#17263f" style="fill: var(--color1, #17263f)" d="M27.338 21.117c0 0.836-0.678 1.513-1.513 1.513s-1.513-0.678-1.513-1.513c0-0.836 0.678-1.513 1.513-1.513s1.513 0.678 1.513 1.513z"></path>
            <path fill="#17263f" style="fill: var(--color1, #17263f)" d="M27.338 15.937c0 0.836-0.678 1.513-1.513 1.513s-1.513-0.678-1.513-1.513c0-0.836 0.678-1.513 1.513-1.513s1.513 0.678 1.513 1.513z"></path>
            <path fill="#17263f" style="fill: var(--color1, #17263f)" d="M6.667 5.562c0 0.836-0.678 1.513-1.513 1.513s-1.513-0.678-1.513-1.513c0-0.836 0.678-1.513 1.513-1.513s1.513 0.678 1.513 1.513z"></path>
            <path fill="#2e7af5" style="fill: var(--color2, #2e7af5)" d="M13.543 12.557c0 0.836-0.678 1.513-1.513 1.513s-1.513-0.678-1.513-1.513c0-0.836 0.678-1.513 1.513-1.513s1.513 0.678 1.513 1.513z"></path>
            <path fill="#2e7af5" style="fill: var(--color2, #2e7af5)" d="M20.477 15.937c0 0.836-0.678 1.513-1.513 1.513s-1.513-0.678-1.513-1.513c0-0.836 0.678-1.513 1.513-1.513s1.513 0.678 1.513 1.513z"></path>
            <path fill="#2e7af5" style="fill: var(--color2, #2e7af5)" d="M13.543 5.597c0 0.836-0.678 1.513-1.513 1.513s-1.513-0.678-1.513-1.513c0-0.836 0.678-1.513 1.513-1.513s1.513 0.678 1.513 1.513z"></path>
            <path fill="#2e7af5" style="fill: var(--color2, #2e7af5)" d="M20.258 26.297c0 0.836-0.678 1.513-1.513 1.513s-1.513-0.678-1.513-1.513c0-0.836 0.678-1.513 1.513-1.513s1.513 0.678 1.513 1.513z"></path>
            <path fill="#2e7af5" style="fill: var(--color2, #2e7af5)" d="M13.366 26.297c0 0.836-0.678 1.513-1.513 1.513s-1.513-0.678-1.513-1.513c0-0.836 0.678-1.513 1.513-1.513s1.513 0.678 1.513 1.513z"></path>
            <path fill="#2e7af5" style="fill: var(--color2, #2e7af5)" d="M6.667 26.098c0 0.836-0.678 1.513-1.513 1.513s-1.513-0.678-1.513-1.513c0-0.836 0.678-1.513 1.513-1.513s1.513 0.678 1.513 1.513z"></path>
            <path fill="#2e7af5" style="fill: var(--color2, #2e7af5)" d="M27.338 26.297c0 0.836-0.678 1.513-1.513 1.513s-1.513-0.678-1.513-1.513c0-0.836 0.678-1.513 1.513-1.513s1.513 0.678 1.513 1.513z"></path>
            <path fill="#2e7af5" style="fill: var(--color2, #2e7af5)" d="M20.477 5.597c0 0.836-0.678 1.513-1.513 1.513s-1.513-0.678-1.513-1.513c0-0.836 0.678-1.513 1.513-1.513s1.513 0.678 1.513 1.513z"></path>
            <path fill="#2e7af5" style="fill: var(--color2, #2e7af5)" d="M27.15 5.597c0 0.836-0.678 1.513-1.513 1.513s-1.513-0.678-1.513-1.513c0-0.836 0.678-1.513 1.513-1.513s1.513 0.678 1.513 1.513z"></path>
        </symbol>
        
        <symbol id="icon-plus_6" viewBox="0 0 32 32">
            <path fill="#17263f" style="fill: var(--color1, #17263f)" d="M27.338 19.427c0 0.836-0.678 1.513-1.513 1.513s-1.513-0.678-1.513-1.513c0-0.836 0.678-1.513 1.513-1.513s1.513 0.678 1.513 1.513z"></path>
            <path fill="#17263f" style="fill: var(--color1, #17263f)" d="M6.667 5.562c0 0.836-0.678 1.513-1.513 1.513s-1.513-0.678-1.513-1.513c0-0.836 0.678-1.513 1.513-1.513s1.513 0.678 1.513 1.513z"></path>
            <path fill="#2e7af5" style="fill: var(--color2, #2e7af5)" d="M6.667 12.557c0 0.836-0.678 1.513-1.513 1.513s-1.513-0.678-1.513-1.513c0-0.836 0.678-1.513 1.513-1.513s1.513 0.678 1.513 1.513z"></path>
            <path fill="#2e7af5" style="fill: var(--color2, #2e7af5)" d="M6.667 19.421c0 0.836-0.678 1.513-1.513 1.513s-1.513-0.678-1.513-1.513c0-0.836 0.678-1.513 1.513-1.513s1.513 0.678 1.513 1.513z"></path>
            <path fill="#17263f" style="fill: var(--color1, #17263f)" d="M13.543 12.557c0 0.836-0.678 1.513-1.513 1.513s-1.513-0.678-1.513-1.513c0-0.836 0.678-1.513 1.513-1.513s1.513 0.678 1.513 1.513z"></path>
            <path fill="#2e7af5" style="fill: var(--color2, #2e7af5)" d="M20.477 12.557c0 0.836-0.678 1.513-1.513 1.513s-1.513-0.678-1.513-1.513c0-0.836 0.678-1.513 1.513-1.513s1.513 0.678 1.513 1.513z"></path>
            <path fill="#2e7af5" style="fill: var(--color2, #2e7af5)" d="M27.338 12.557c0 0.836-0.678 1.513-1.513 1.513s-1.513-0.678-1.513-1.513c0-0.836 0.678-1.513 1.513-1.513s1.513 0.678 1.513 1.513z"></path>
            <path fill="#2e7af5" style="fill: var(--color2, #2e7af5)" d="M13.543 5.597c0 0.836-0.678 1.513-1.513 1.513s-1.513-0.678-1.513-1.513c0-0.836 0.678-1.513 1.513-1.513s1.513 0.678 1.513 1.513z"></path>
            <path fill="#2e7af5" style="fill: var(--color2, #2e7af5)" d="M20.467 26.297c0 0.836-0.678 1.513-1.513 1.513s-1.513-0.678-1.513-1.513c0-0.836 0.678-1.513 1.513-1.513s1.513 0.678 1.513 1.513z"></path>
            <path fill="#2e7af5" style="fill: var(--color2, #2e7af5)" d="M13.598 26.297c0 0.836-0.678 1.513-1.513 1.513s-1.513-0.678-1.513-1.513c0-0.836 0.678-1.513 1.513-1.513s1.513 0.678 1.513 1.513z"></path>
            <path fill="#2e7af5" style="fill: var(--color2, #2e7af5)" d="M6.667 26.297c0 0.836-0.678 1.513-1.513 1.513s-1.513-0.678-1.513-1.513c0-0.836 0.678-1.513 1.513-1.513s1.513 0.678 1.513 1.513z"></path>
            <path fill="#2e7af5" style="fill: var(--color2, #2e7af5)" d="M27.338 26.297c0 0.836-0.678 1.513-1.513 1.513s-1.513-0.678-1.513-1.513c0-0.836 0.678-1.513 1.513-1.513s1.513 0.678 1.513 1.513z"></path>
            <path fill="#2e7af5" style="fill: var(--color2, #2e7af5)" d="M20.477 5.597c0 0.836-0.678 1.513-1.513 1.513s-1.513-0.678-1.513-1.513c0-0.836 0.678-1.513 1.513-1.513s1.513 0.678 1.513 1.513z"></path>
        </symbol>
        
        <symbol id="icon-plus_7" viewBox="0 0 32 32">
            <path fill="#17263f" style="fill: var(--color1, #17263f)" d="M6.667 5.562c0 0.836-0.678 1.513-1.513 1.513s-1.513-0.678-1.513-1.513c0-0.836 0.678-1.513 1.513-1.513s1.513 0.678 1.513 1.513z"></path>
            <path fill="#2e7af5" style="fill: var(--color2, #2e7af5)" d="M13.543 19.437c0 0.836-0.678 1.513-1.513 1.513s-1.513-0.678-1.513-1.513c0-0.836 0.678-1.513 1.513-1.513s1.513 0.678 1.513 1.513z"></path>
            <path fill="#2e7af5" style="fill: var(--color2, #2e7af5)" d="M20.477 12.557c0 0.836-0.678 1.513-1.513 1.513s-1.513-0.678-1.513-1.513c0-0.836 0.678-1.513 1.513-1.513s1.513 0.678 1.513 1.513z"></path>
            <path fill="#2e7af5" style="fill: var(--color2, #2e7af5)" d="M27.338 5.597c0 0.836-0.678 1.513-1.513 1.513s-1.513-0.678-1.513-1.513c0-0.836 0.678-1.513 1.513-1.513s1.513 0.678 1.513 1.513z"></path>
            <path fill="#2e7af5" style="fill: var(--color2, #2e7af5)" d="M13.543 5.597c0 0.836-0.678 1.513-1.513 1.513s-1.513-0.678-1.513-1.513c0-0.836 0.678-1.513 1.513-1.513s1.513 0.678 1.513 1.513z"></path>
            <path fill="#2e7af5" style="fill: var(--color2, #2e7af5)" d="M6.667 26.297c0 0.836-0.678 1.513-1.513 1.513s-1.513-0.678-1.513-1.513c0-0.836 0.678-1.513 1.513-1.513s1.513 0.678 1.513 1.513z"></path>
            <path fill="#2e7af5" style="fill: var(--color2, #2e7af5)" d="M20.477 5.597c0 0.836-0.678 1.513-1.513 1.513s-1.513-0.678-1.513-1.513c0-0.836 0.678-1.513 1.513-1.513s1.513 0.678 1.513 1.513z"></path>
        </symbol>
        
        <symbol id="icon-plus_8" viewBox="0 0 32 32">
            <path fill="#17263f" style="fill: var(--color1, #17263f)" d="M6.667 5.562c0 0.836-0.678 1.513-1.513 1.513s-1.513-0.678-1.513-1.513c0-0.836 0.678-1.513 1.513-1.513s1.513 0.678 1.513 1.513z"></path>
            <path fill="#2e7af5" style="fill: var(--color2, #2e7af5)" d="M6.667 12.483c0 0.836-0.678 1.513-1.513 1.513s-1.513-0.678-1.513-1.513c0-0.836 0.678-1.513 1.513-1.513s1.513 0.678 1.513 1.513z"></path>
            <path fill="#2e7af5" style="fill: var(--color2, #2e7af5)" d="M13.543 15.964c0 0.836-0.678 1.513-1.513 1.513s-1.513-0.678-1.513-1.513c0-0.836 0.678-1.513 1.513-1.513s1.513 0.678 1.513 1.513z"></path>
            <path fill="#17263f" style="fill: var(--color1, #17263f)" d="M20.477 15.964c0 0.836-0.678 1.513-1.513 1.513s-1.513-0.678-1.513-1.513c0-0.836 0.678-1.513 1.513-1.513s1.513 0.678 1.513 1.513z"></path>
            <path fill="#2e7af5" style="fill: var(--color2, #2e7af5)" d="M27.338 12.502c0 0.836-0.678 1.513-1.513 1.513s-1.513-0.678-1.513-1.513c0-0.836 0.678-1.513 1.513-1.513s1.513 0.678 1.513 1.513z"></path>
            <path fill="#2e7af5" style="fill: var(--color2, #2e7af5)" d="M27.338 5.597c0 0.836-0.678 1.513-1.513 1.513s-1.513-0.678-1.513-1.513c0-0.836 0.678-1.513 1.513-1.513s1.513 0.678 1.513 1.513z"></path>
            <path fill="#2e7af5" style="fill: var(--color2, #2e7af5)" d="M13.543 5.597c0 0.836-0.678 1.513-1.513 1.513s-1.513-0.678-1.513-1.513c0-0.836 0.678-1.513 1.513-1.513s1.513 0.678 1.513 1.513z"></path>
            <path fill="#2e7af5" style="fill: var(--color2, #2e7af5)" d="M27.569 19.625c0 0.836-0.678 1.513-1.513 1.513s-1.513-0.678-1.513-1.513c0-0.836 0.678-1.513 1.513-1.513s1.513 0.678 1.513 1.513z"></path>
            <path fill="#2e7af5" style="fill: var(--color2, #2e7af5)" d="M6.667 19.364c0 0.836-0.678 1.513-1.513 1.513s-1.513-0.678-1.513-1.513c0-0.836 0.678-1.513 1.513-1.513s1.513 0.678 1.513 1.513z"></path>
            <path fill="#2e7af5" style="fill: var(--color2, #2e7af5)" d="M6.667 26.246c0 0.836-0.678 1.513-1.513 1.513s-1.513-0.678-1.513-1.513c0-0.836 0.678-1.513 1.513-1.513s1.513 0.678 1.513 1.513z"></path>
            <path fill="#2e7af5" style="fill: var(--color2, #2e7af5)" d="M13.543 26.246c0 0.836-0.678 1.513-1.513 1.513s-1.513-0.678-1.513-1.513c0-0.836 0.678-1.513 1.513-1.513s1.513 0.678 1.513 1.513z"></path>
            <path fill="#2e7af5" style="fill: var(--color2, #2e7af5)" d="M20.441 26.246c0 0.836-0.678 1.513-1.513 1.513s-1.513-0.678-1.513-1.513c0-0.836 0.678-1.513 1.513-1.513s1.513 0.678 1.513 1.513z"></path>
            <path fill="#2e7af5" style="fill: var(--color2, #2e7af5)" d="M27.338 26.246c0 0.836-0.678 1.513-1.513 1.513s-1.513-0.678-1.513-1.513c0-0.836 0.678-1.513 1.513-1.513s1.513 0.678 1.513 1.513z"></path>
            <path fill="#2e7af5" style="fill: var(--color2, #2e7af5)" d="M20.477 5.597c0 0.836-0.678 1.513-1.513 1.513s-1.513-0.678-1.513-1.513c0-0.836 0.678-1.513 1.513-1.513s1.513 0.678 1.513 1.513z"></path>
        </symbol>
    </defs>
</svg>
