<svg width="92" height="66" fill="none" xmlns="http://www.w3.org/2000/svg"><rect x=".5" width="91" height="65.8" rx="11.2" fill="#249F58"/><path fill-rule="evenodd" clip-rule="evenodd" d="m46.001 8.773 32.5 24.127-32.5 24.127-32.5-24.127" fill="#FFDA2C"/><path d="M46 48.253c8.377 0 15.167-6.874 15.167-15.353 0-8.48-6.79-15.353-15.166-15.353-8.377 0-15.167 6.874-15.167 15.353 0 8.48 6.79 15.353 15.167 15.353Z" fill="#1A47B8"/><path fill-rule="evenodd" clip-rule="evenodd" d="M39.501 39.48v4.387h4.333V39.48h-4.333Zm8.667 0v4.387H52.5V39.48h-4.333ZM35.167 26.32s9.81 1.755 16.883 4.817l9.117 3.956" fill="#fff"/><path d="M35.167 26.32s9.81 1.755 16.883 4.817l9.117 3.956" stroke="#fff" stroke-width="1.4"/></svg>