<svg width="92" height="66" fill="none" xmlns="http://www.w3.org/2000/svg"><g clip-path="url(#a)"><rect x=".5" width="91" height="65.8" rx="11.2" fill="#0A6A30"/><path d="M82.833 0H9.167C4.38 0 .5 3.928.5 8.773v48.254c0 4.845 3.88 8.773 8.667 8.773h73.666c4.787 0 8.667-3.928 8.667-8.773V8.773C91.5 3.928 87.62 0 82.833 0Z" fill="#0A6A30"/><path fill-rule="evenodd" clip-rule="evenodd" d="M69.72 26.206c-.285 2.614-1.1 4.5-2.053 4.5-.954 0-1.768-1.886-2.054-4.5-2.583-.29-4.446-1.114-4.446-2.08 0-.964 1.863-1.79 4.446-2.079.286-2.614 1.1-4.5 2.054-4.5.953 0 1.768 1.886 2.054 4.5 2.582.29 4.446 1.115 4.446 2.08 0 .965-1.864 1.79-4.446 2.079ZM.5 0h26v65.8H.5V0Z" fill="#fff"/><path fill-rule="evenodd" clip-rule="evenodd" d="M78.371 30.566c.087.768.13 1.544.13 2.334 0 10.9-8.732 19.74-19.5 19.74s-19.5-8.84-19.5-19.74c0-10.9 8.732-19.74 19.5-19.74.78 0 1.547.044 2.305.132-7.418 1.009-13.138 7.444-13.138 15.221 0 8.48 6.79 15.354 15.166 15.354 7.688 0 14.04-5.79 15.037-13.3Z" fill="#fff"/></g><defs><clipPath id="a"><rect x=".5" width="91" height="65.8" rx="11.2" fill="#fff"/></clipPath></defs></svg>