<svg width="92" height="66" fill="none" xmlns="http://www.w3.org/2000/svg"><rect x=".5" width="91" height="65.8" rx="11.2" fill="#F93939"/><path fill-rule="evenodd" clip-rule="evenodd" d="m61.176 37.953-5.035 2.676.962-5.672-4.074-4.022 5.634-.834 2.513-5.158 2.513 5.163 5.634.833-4.074 4.014.962 5.672" fill="#fff"/><path fill-rule="evenodd" clip-rule="evenodd" d="M41.667 48.253c8.376 0 15.166-6.874 15.166-15.353 0-8.48-6.79-15.353-15.166-15.353C33.29 17.547 26.5 24.42 26.5 32.9s6.79 15.353 15.167 15.353ZM46 43.867c5.98 0 10.833-4.913 10.833-10.967S51.98 21.933 46 21.933 35.167 26.846 35.167 32.9 40.02 43.867 46 43.867Z" fill="#fff"/></svg>