<svg width="92" height="66" fill="none" xmlns="http://www.w3.org/2000/svg"><g clip-path="url(#a)"><rect x=".5" width="91" height="65.8" rx="11.2" fill="#fff"/><path fill-rule="evenodd" clip-rule="evenodd" d="M.5 0h39v30.707H.5V0Z" fill="#1A47B8"/><path fill-rule="evenodd" clip-rule="evenodd" d="M39.5 0v4.387h52V0h-52Zm0 8.773v4.387h52V8.773h-52Zm0 8.774v4.386h52v-4.386h-52Zm0 8.773v4.387h52V26.32h-52Zm-39 8.773v4.387h91v-4.387H.5Zm0 8.774v4.386h91v-4.386H.5Zm0 8.773v4.387h91V52.64H.5Zm0 8.773V65.8h91v-4.387H.5Z" fill="#F93939"/><path fill-rule="evenodd" clip-rule="evenodd" d="M4.834 4.387v4.386h4.333V4.387H4.834Zm8.667 0v4.386h4.333V4.387h-4.333Zm8.666 0v4.386h4.334V4.387h-4.334Zm8.667 0v4.386h4.333V4.387h-4.333Zm-4.333 4.386v4.387h4.333V8.773h-4.333Zm-8.667 0v4.387h4.333V8.773h-4.333Zm-8.667 0v4.387h4.334V8.773H9.167ZM4.834 13.16v4.387h4.333V13.16H4.834Zm8.667 0v4.387h4.333V13.16h-4.333Zm8.666 0v4.387h4.334V13.16h-4.334Zm8.667 0v4.387h4.333V13.16h-4.333Zm-26 8.773v4.387h4.333v-4.387H4.834Zm8.667 0v4.387h4.333v-4.387h-4.333Zm8.666 0v4.387h4.334v-4.387h-4.334Zm8.667 0v4.387h4.333v-4.387h-4.333Zm-4.333-4.386v4.386h4.333v-4.386h-4.333Zm-8.667 0v4.386h4.333v-4.386h-4.333Zm-8.667 0v4.386h4.334v-4.386H9.167Z" fill="#fff"/></g><defs><clipPath id="a"><rect x=".5" width="91" height="65.8" rx="11.2" fill="#fff"/></clipPath></defs></svg>