<svg width="92" height="66" fill="none" xmlns="http://www.w3.org/2000/svg"><g clip-path="url(#a)"><rect x=".5" width="91" height="65.8" rx="11.2" fill="#1A47B8"/><path fill-rule="evenodd" clip-rule="evenodd" d="M10.18 0H.5v10.967L81.767 65.8H91.5V54.833L10.18 0Z" fill="#fff"/><path d="M3.729 0 91.5 59.375V65.8h-3.153L.5 6.363V0h3.229Z" fill="#F93939"/><path fill-rule="evenodd" clip-rule="evenodd" d="M82.833 0H91.5v10.967S35.21 47.499 9.167 65.8H.5V54.833L82.833 0Z" fill="#fff"/><path d="M91.5 0h-2.939L.5 59.427V65.8h3.229L91.5 6.411V0Z" fill="#F93939"/><path fill-rule="evenodd" clip-rule="evenodd" d="M33.594 0h24.888v20.296H91.5V45.49H58.482V65.8H33.594V45.49H.5V20.296h33.094V0Z" fill="#fff"/><path fill-rule="evenodd" clip-rule="evenodd" d="M38.816 0h14.368v25.308H91.5v15.184H53.184V65.8H38.816V40.492H.5V25.308h38.316V0Z" fill="#F93939"/></g><defs><clipPath id="a"><rect x=".5" width="91" height="65.8" rx="11.2" fill="#fff"/></clipPath></defs></svg>