<svg width="92" height="66" fill="none" xmlns="http://www.w3.org/2000/svg"><g clip-path="url(#a)"><rect x=".5" width="91" height="65.8" rx="11.2" fill="#1A47B8"/><path d="M82.833 0H9.167C4.38 0 .5 3.928.5 8.773v48.254c0 4.845 3.88 8.773 8.667 8.773h73.666c4.787 0 8.667-3.928 8.667-8.773V8.773C91.5 3.928 87.62 0 82.833 0Z" fill="#1A47B8"/><path opacity=".5" fill-rule="evenodd" clip-rule="evenodd" d="m17.834 50.447 4.333-2.194 2.167-4.386 2.167 4.386 4.333 2.194-4.333 2.193-2.167 4.387-2.167-4.387-4.333-2.193ZM61.167 13.16v4.387h4.334V13.16h-4.334Zm13 4.387v4.386h4.334v-4.386h-4.334ZM56.834 26.32v4.387h4.333V26.32h-4.333Zm13 4.387v4.386h4.333v-4.386h-4.333Zm-4.333 13.16v4.386h4.333v-4.386h-4.333Z" fill="#fff"/><path d="M39.5 4.387H9.168c-2.393 0-4.333 1.964-4.333 4.386v21.934c0 2.422 1.94 4.386 4.333 4.386h30.334c2.393 0 4.333-1.964 4.333-4.386V8.773c0-2.422-1.94-4.386-4.333-4.386Z" fill="#fff"/><path fill-rule="evenodd" clip-rule="evenodd" d="M22.167 21.933h-13v-4.386h13V8.773H26.5v8.774h13v4.386h-13v8.773h-4.333v-8.773ZM33 26.32v4.386h6.5V26.32H33Zm0-17.547v4.387h6.5V8.773H33ZM9.167 26.32v4.386h6.5V26.32h-6.5Zm0-17.547v4.387h6.5V8.773h-6.5Z" fill="#F93939"/></g><defs><clipPath id="a"><rect x=".5" width="91" height="65.8" rx="11.2" fill="#fff"/></clipPath></defs></svg>