<svg width="92" height="66" fill="none" xmlns="http://www.w3.org/2000/svg"><g clip-path="url(#a)"><rect x=".5" width="91" height="65.8" rx="11.2" fill="#F93939"/><path d="M82.833 0H9.167C4.38 0 .5 3.928.5 8.773v48.254c0 4.845 3.88 8.773 8.667 8.773h73.666c4.787 0 8.667-3.928 8.667-8.773V8.773C91.5 3.928 87.62 0 82.833 0Z" fill="#F93939"/><path fill-rule="evenodd" clip-rule="evenodd" d="M.5 17.547h91v30.707H.5V17.547Z" fill="#FFDA2C"/><path fill-rule="evenodd" clip-rule="evenodd" d="M39.5 27.294v11.054c0 3.07-2.911 5.527-6.5 5.527h-8.666c-3.58-.008-6.5-2.478-6.5-5.536V27.285c0-2.51 1.941-4.606 4.61-5.286.807-2.281 3.285-.237 6.223-.237 2.956 0 5.417-2.03 6.223.241 2.66.698 4.61 2.8 4.61 5.29Z" fill="#D4AF2C"/><path fill-rule="evenodd" clip-rule="evenodd" d="M39.501 30.707h4.333v13.16h-4.333v-13.16Zm-26 0h4.333v13.16h-4.333v-13.16Z" fill="#CBCBCB"/><path fill-rule="evenodd" clip-rule="evenodd" d="M39.501 39.48h4.333v4.387h-4.333V39.48Zm-26 0h4.333v4.387h-4.333V39.48Z" fill="#1A47B8"/><path fill-rule="evenodd" clip-rule="evenodd" d="M39.501 26.32h4.333v4.387h-4.333V26.32Zm-26 0h4.333v4.387h-4.333V26.32Z" fill="#D4AF2C"/><path fill-rule="evenodd" clip-rule="evenodd" d="M22.168 26.32h4.333v6.58h-4.333v-6.58Zm8.667 8.773h4.333v6.58h-4.333v-6.58Z" fill="#AF010D"/><path fill-rule="evenodd" clip-rule="evenodd" d="M22.168 35.093h4.333v6.58h-4.333v-6.58Z" fill="#FFDA2C"/><path fill-rule="evenodd" clip-rule="evenodd" d="M30.834 26.32h4.333v6.58h-4.333v-6.58Z" fill="#AE6A3E"/><path fill-rule="evenodd" clip-rule="evenodd" d="m26.501 26.32-4.333-4.387h13l-4.333 4.387H26.5Z" fill="#AF010D"/><path fill-rule="evenodd" clip-rule="evenodd" d="M26.5 17.547h4.333v4.386H26.5v-4.386Z" fill="#D4AF2C"/></g><defs><clipPath id="a"><rect x=".5" width="91" height="65.8" rx="11.2" fill="#fff"/></clipPath></defs></svg>