<svg width="129" height="28" fill="none" xmlns="http://www.w3.org/2000/svg"><path d="M14.08 24.848H7.432V8.05H0V3.152h21.48V8.05h-7.4v16.798Zm31.457-12.252a6 6 0 0 1-.868 1.832 5.867 5.867 0 0 1-1.362 1.382 8.065 8.065 0 0 1-1.807.968l5.182 8.066h-6.921l-4.434-7.4h-5.181v7.4h-6.617V3.148h14.322c1.137 0 2.187.151 3.154.45a7.325 7.325 0 0 1 2.54 1.35 5.97 5.97 0 0 1 1.687 2.266c.396.91.598 1.967.598 3.167 0 .802-.095 1.537-.289 2.215h-.004ZM30.11 8.081v4.566h6.204c.456 0 .852-.055 1.193-.167.34-.112.637-.26.887-.45.25-.189.432-.425.547-.715.115-.287.17-.612.17-.969 0-.38-.063-.712-.186-.999a1.703 1.703 0 0 0-.547-.7 2.71 2.71 0 0 0-.887-.419 4.014 4.014 0 0 0-1.11-.15h-6.275l.004.003Zm59.672 8.833-5.217 7.93h-7.742l8.32-11.264-7.706-10.432h7.433c.158.22.368.523.63.898l.867 1.267c.317.464.65.956.99 1.467.341.511.67.995.991 1.448.317.457.602.868.852 1.232.25.368.444.639.578.817.115-.202.301-.484.563-.848.261-.368.547-.779.852-1.232.305-.457.638-.937.99-1.448.353-.511.685-.999 1.006-1.467.317-.465.603-.883.852-1.251.25-.368.444-.662.579-.883h7.468L94.346 13.58c.365.534.824 1.161 1.383 1.882a95.549 95.549 0 0 1 1.723 2.315c.59.821 1.193 1.646 1.807 2.467.614.82 1.169 1.56 1.672 2.215.499.654.907 1.204 1.228 1.65.317.445.499.688.547.731h-7.468l-5.456-7.93v.004Zm29.088 7.934h-6.581v-6.866l-10.095-14.83h7.298l6.105 10.033 6.07-10.033H129l-10.127 14.73v6.966h-.003Zm-53.908-8.155a1.46 1.46 0 0 1-1.019-.414 1.39 1.39 0 0 1 0-1.995 3.466 3.466 0 0 0 0-4.98C62.577 7.97 60.402 8 58.77 9.375a1.465 1.465 0 0 1-2.032-.147 1.388 1.388 0 0 1 .15-1.986c2.762-2.327 6.672-2.296 9.097.07a6.246 6.246 0 0 1 0 8.964c-.282.275-.65.414-1.018.414l-.004.004Z" fill="#fff"/><path d="M53.314 14.133c-.368 0-.737-.139-1.018-.414a1.389 1.389 0 0 1 0-1.994l4.552-4.45a1.468 1.468 0 0 1 2.04 0 1.39 1.39 0 0 1 0 1.995l-4.552 4.449c-.281.275-.65.414-1.018.414h-.004Zm10.59 8.357c-1.644 0-3.249-.6-4.473-1.797a6.246 6.246 0 0 1 0-8.964 1.468 1.468 0 0 1 2.04 0 1.39 1.39 0 0 1 0 1.994 3.466 3.466 0 0 0 0 4.98c1.367 1.336 3.542 1.305 5.174-.07a1.465 1.465 0 0 1 2.033.147 1.39 1.39 0 0 1-.15 1.987c-1.368 1.15-3.016 1.727-4.624 1.727v-.004Z" fill="#fff"/><path d="M67.549 21.142a1.46 1.46 0 0 1-1.019-.414 1.39 1.39 0 0 1 0-1.994l4.552-4.45a1.468 1.468 0 0 1 2.04 0c.567.55.563 1.44 0 1.995l-4.551 4.449c-.282.275-.65.414-1.019.414h-.004Zm4.587-9.68a1.436 1.436 0 0 1-1.41-1.127c-.911-4.356-4.88-7.52-9.44-7.52-2.445 0-4.668.883-6.427 2.552a1.46 1.46 0 0 1-2.036-.031 1.381 1.381 0 0 1 .032-1.99A12.198 12.198 0 0 1 61.288 0c5.923 0 11.077 4.108 12.266 9.77a1.409 1.409 0 0 1-1.125 1.66c-.1.02-.194.028-.29.028l-.004.004Z" fill="#fff"/><path d="M72.136 11.462a1.436 1.436 0 0 1-1.41-1.127c-.911-4.356-4.88-7.52-9.44-7.52-2.445 0-4.668.883-6.427 2.552a1.46 1.46 0 0 1-2.036-.031 1.381 1.381 0 0 1 .032-1.99A12.198 12.198 0 0 1 61.288 0c5.923 0 11.077 4.108 12.266 9.77a1.409 1.409 0 0 1-1.125 1.66c-.1.02-.194.028-.29.028l-.004.004Zm-7.689 16.534c-5.923 0-11.077-4.108-12.266-9.77-.158-.762.345-1.506 1.126-1.66.78-.156 1.54.336 1.7 1.099.91 4.356 4.88 7.52 9.44 7.52 2.445 0 4.667-.883 6.426-2.552a1.46 1.46 0 0 1 2.037.03 1.381 1.381 0 0 1-.032 1.991A12.199 12.199 0 0 1 64.443 28l.004-.004Z" fill="#fff"/></svg>