<svg width="65" height="51" fill="none" xmlns="http://www.w3.org/2000/svg"><path d="M19.942 18.366h5.15v.954h-2.026v5.386h-1.118V19.32h-2.016l.01-.954Zm4.931 1.75h.949V21h.02a.86.86 0 0 1 .18-.358c.09-.11.189-.229.309-.318.12-.1.26-.179.41-.239.149-.06.299-.09.448-.09.12 0 .2 0 .25.01.05 0 .09.01.14.02V21l-.22-.03c-.08-.01-.15-.01-.22-.01-.17 0-.33.04-.489.1-.15.069-.28.168-.4.297-.109.14-.199.299-.269.497-.07.199-.1.418-.1.676v2.186h-1.008v-4.6Zm7.378 4.59h-.999v-.636h-.02c-.13.229-.309.418-.559.557-.25.139-.499.208-.758.208-.61 0-1.049-.149-1.318-.447-.27-.298-.41-.755-.41-1.351v-2.912h1.019v2.812c0 .408.08.686.23.855.15.169.369.248.648.248.22 0 .39-.03.54-.099a.941.941 0 0 0 .539-.666c.04-.159.06-.318.06-.497v-2.663h1.018v4.591h.01Zm1.727-1.47c.03.298.14.496.34.626.199.119.428.178.708.178.09 0 .2-.01.32-.02s.239-.05.339-.089c.11-.04.19-.1.27-.179.07-.08.1-.179.09-.318a.413.413 0 0 0-.14-.318.876.876 0 0 0-.34-.198c-.14-.05-.3-.09-.48-.13l-.538-.119a4.97 4.97 0 0 1-.55-.149 1.776 1.776 0 0 1-.468-.238 1.04 1.04 0 0 1-.33-.388c-.09-.159-.13-.348-.13-.586 0-.249.06-.457.18-.626.12-.17.28-.308.46-.408.189-.1.398-.179.628-.218.23-.04.45-.06.659-.06.24 0 .47.03.679.08.22.05.41.129.589.248a1.415 1.415 0 0 1 .659 1.093h-1.068c-.05-.239-.16-.408-.33-.487-.18-.09-.38-.13-.599-.13-.07 0-.16 0-.26.02-.1.01-.19.04-.279.07-.09.03-.16.08-.22.14-.06.059-.09.139-.09.248 0 .129.05.228.13.298.09.08.2.14.34.189.14.05.3.09.479.129.18.04.36.08.55.12.179.039.358.089.538.148.18.06.34.14.48.239.14.1.249.228.339.377.09.15.13.348.13.567 0 .268-.06.497-.19.695-.13.19-.29.348-.49.458a2.09 2.09 0 0 1-.668.258 3.7 3.7 0 0 1-.719.08c-.29 0-.559-.03-.809-.1s-.459-.169-.639-.298a1.587 1.587 0 0 1-.429-.497 1.71 1.71 0 0 1-.17-.706h1.029Zm3.354-3.12h.769v-1.382h1.018v1.381h.919v.755h-.919v2.455c0 .11 0 .199.01.278.01.08.03.14.06.199.03.06.08.09.15.12.07.029.15.039.27.039h.219c.07 0 .14-.01.22-.03v.785c-.11.01-.23.02-.33.04-.11.01-.22.02-.33.02-.269 0-.489-.03-.648-.08a.844.844 0 0 1-.38-.228.862.862 0 0 1-.19-.368 3.531 3.531 0 0 1-.06-.507V20.89h-.768l-.01-.775Zm3.424 0h.959v.625h.02c.14-.268.339-.457.599-.576.26-.12.529-.179.828-.179.36 0 .679.06.949.189.27.129.499.298.678.526.18.229.31.487.4.776a3.336 3.336 0 0 1 .02 1.838c-.08.288-.2.547-.36.765-.16.229-.37.398-.619.537-.25.139-.539.199-.888.199-.15 0-.3-.01-.45-.04a2.14 2.14 0 0 1-.429-.13 1.572 1.572 0 0 1-.379-.228c-.12-.09-.21-.199-.29-.318h-.02v2.296h-1.018v-6.28ZM44.3 22.41c0-.209-.03-.408-.08-.607a1.648 1.648 0 0 0-.24-.516 1.152 1.152 0 0 0-.948-.497c-.429 0-.748.149-.968.447-.22.298-.32.686-.32 1.183 0 .228.03.447.09.646.06.198.14.367.26.506.11.14.25.259.41.338.159.09.339.13.548.13.23 0 .43-.05.59-.14.16-.09.289-.218.399-.367.1-.15.18-.318.23-.517.01-.209.03-.407.03-.606Zm1.797-4.045h1.018v.954h-1.018v-.954Zm0 1.75h1.018v4.59h-1.018v-4.59Zm1.927-1.75h1.018v6.34h-1.018v-6.34Zm4.123 6.46c-.37 0-.699-.06-.988-.18a2.113 2.113 0 0 1-.73-.496 2.1 2.1 0 0 1-.448-.765c-.1-.299-.16-.627-.16-.974 0-.348.05-.676.16-.964.1-.298.26-.547.449-.765.19-.219.449-.378.729-.497.29-.12.619-.18.988-.18.37 0 .699.06.988.18.29.119.53.288.729.497.2.218.35.467.45.765.099.298.159.616.159.964 0 .357-.05.675-.16.974-.1.298-.26.546-.449.765-.19.218-.45.377-.729.497-.29.119-.619.179-.988.179Zm0-.796c.23 0 .42-.05.589-.139.17-.09.3-.218.41-.367.109-.15.179-.328.239-.517.05-.189.08-.388.08-.586 0-.2-.03-.388-.08-.587a1.45 1.45 0 0 0-.24-.516c-.11-.15-.24-.269-.41-.368a1.214 1.214 0 0 0-.588-.14c-.23 0-.42.05-.59.14-.169.09-.299.219-.408.368-.11.149-.18.318-.24.516a2.37 2.37 0 0 0-.08.587c0 .198.03.397.08.586.05.189.13.368.24.517.11.149.24.278.409.367.17.09.37.14.589.14Zm2.625-3.915h.77v-1.381h1.017v1.381h.919v.755h-.919v2.455c0 .11 0 .199.01.278.01.08.03.14.06.199.03.06.08.09.15.12.07.029.15.039.27.039h.22c.07 0 .139-.01.219-.03v.785c-.11.01-.23.02-.33.04-.11.01-.22.02-.33.02-.269 0-.488-.03-.648-.08a.843.843 0 0 1-.38-.228.86.86 0 0 1-.189-.368 3.531 3.531 0 0 1-.06-.507V20.89h-.769l-.01-.775Z" fill="#fff"/><path d="M18.754 18.366h-4.652l-1.438-4.412-1.447 4.412-4.653-.01 3.764 2.733L8.89 25.49l3.774-2.723 3.764 2.723-1.438-4.402 3.764-2.723Z" fill="#00B67A"/><path d="m15.31 22.083-.32-.994-2.326 1.68 2.646-.686Z" fill="#005128"/><path d="M16.108 28.303H6.564v9.5h9.544v-9.5Zm10.332 0h-9.544v9.5h9.544v-9.5Zm10.343 0h-9.544v9.5h9.544v-9.5Zm10.343 0h-9.544v9.5h9.544v-9.5Z" fill="#00B67A"/><path d="M57.468 28.303h-9.544v9.5h9.544v-9.5Z" fill="#DCDCE6"/><path d="M47.924 28.303h9.554l-.04 9.5h-9.514v-9.5Z" fill="#00B67A"/><path d="m11.336 34.703 1.448-.368.609 1.859-2.057-1.49Zm3.335-2.405h-2.556l-.789-2.395-.788 2.395H7.992l2.067 1.48-.789 2.396 2.066-1.48 1.268-.915 2.067-1.48Zm7.009 2.405 1.447-.368.609 1.859-2.057-1.49Zm3.334-2.405h-2.556l-.779-2.395-.788 2.395h-2.556l2.066 1.48-.788 2.396 2.066-1.48 1.268-.915 2.067-1.48Zm7.007 2.405 1.448-.368.609 1.859-2.057-1.49Zm3.335-2.405H32.8l-.789-2.395-.788 2.395h-2.556l2.066 1.48-.788 2.396 2.066-1.48 1.278-.915 2.067-1.48Zm6.998 2.405 1.448-.368.609 1.859-2.057-1.49Zm3.344-2.405h-2.555l-.789-2.395-.789 2.395H39.01l2.066 1.48-.788 2.396 2.066-1.48 1.278-.915 2.066-1.48Zm6.998 2.405 1.447-.368.61 1.859-2.057-1.49Zm3.344-2.405h-2.556l-.788-2.395-.789 2.395h-2.555l2.066 1.48-.789 2.396 2.067-1.48 1.278-.915 2.066-1.48Z" fill="#fff"/></svg>