<svg width="48" height="47" fill="none" xmlns="http://www.w3.org/2000/svg"><rect x="1.302" y=".362" width="45.518" height="45.675" rx="12.438" fill="#2E7AF5"/><rect x="1.302" y=".362" width="45.518" height="45.675" rx="12.438" stroke="url(#a)" stroke-width=".725"/><g clip-path="url(#b)"><path d="M35.822 18.4s-.235-1.655-.957-2.381c-.914-.956-1.936-.961-2.404-1.017-3.357-.244-8.396-.244-8.396-.244h-.01s-5.038 0-8.394.244c-.47.056-1.491.06-2.405 1.017-.722.726-.952 2.381-.952 2.381s-.244 1.945-.244 3.886v1.819c0 1.94.24 3.886.24 3.886s.234 1.654.951 2.38c.914.957 2.114.924 2.649 1.027 1.921.183 8.16.24 8.16.24s5.044-.01 8.4-.249c.47-.056 1.491-.06 2.405-1.017.722-.727.956-2.381.956-2.381s.24-1.941.24-3.886v-1.82c0-1.94-.24-3.885-.24-3.885ZM21.58 26.313v-6.746l6.483 3.385-6.483 3.36Z" fill="#fff"/></g><defs><linearGradient id="a" x1="24.061" y1="0" x2="24.061" y2="46.4" gradientUnits="userSpaceOnUse"><stop stop-color="#fff"/><stop offset="1" stop-color="#E7F0FF"/></linearGradient><clipPath id="b"><path fill="#fff" transform="translate(12.06 11.2)" d="M0 0h24v24H0z"/></clipPath></defs></svg>