<svg width="47" height="47" fill="none" xmlns="http://www.w3.org/2000/svg"><rect x=".392" y=".362" width="45.675" height="45.675" rx="12.438" fill="#2E7AF5"/><rect x=".392" y=".362" width="45.675" height="45.675" rx="12.438" stroke="url(#a)" stroke-width=".725"/><path d="M16.784 23.424c0-1.146.265-2.08.796-2.8a4.743 4.743 0 0 1 2.075-1.62 7.25 7.25 0 0 1 2.758-.526c.426 0 .961.01 1.606.028.654.02 1.241.08 1.762.185v2.814a7.146 7.146 0 0 0-1.478-.156 43.846 43.846 0 0 0-1.421-.028c-.635 0-1.09.17-1.365.511-.275.332-.412.763-.412 1.294 0 .379.114.696.341.952.237.246.56.37.967.37.568 0 1.146-.204 1.734-.612.587-.407 1.085-.966 1.492-1.677l.626 2.814c-.37.436-.792.867-1.265 1.294a6.257 6.257 0 0 1-1.663 1.037c-.635.275-1.38.413-2.232.413-.976 0-1.786-.214-2.43-.64a4.122 4.122 0 0 1-1.422-1.635 4.69 4.69 0 0 1-.469-2.018Zm12.892 1.82c-.076.397-.251.824-.526 1.279-.275.454-.55.79-.825 1.009-.833-.02-1.525-.209-2.075-.569-.54-.36-.957-.8-1.25-1.322a5.097 5.097 0 0 1-.555-1.549V18.01c0-.588-.151-1.033-.455-1.336-.293-.313-.762-.47-1.407-.47-.606 0-1.27.1-1.99.3-.72.189-1.454.392-2.203.61-.312-.36-.559-.824-.739-1.393a8.577 8.577 0 0 1-.327-1.69 13.75 13.75 0 0 1 2.132-.669c.777-.19 1.55-.332 2.317-.426a15.469 15.469 0 0 1 2.061-.157c.834 0 1.634.157 2.402.47.768.303 1.398.81 1.89 1.52.503.701.754 1.654.754 2.857v5.785c0 .407.066.767.199 1.08.132.313.331.564.597.753Z" fill="#fff"/><path fill-rule="evenodd" clip-rule="evenodd" d="M31.786 31.733c-2.482 1.833-6.092 2.809-9.206 2.809-4.362 0-8.274-1.607-11.252-4.28-.226-.21-.03-.496.256-.33 3.204 1.862 7.16 2.973 11.252 2.973 2.753 0 5.791-.57 8.59-1.757.42-.165.766.285.36.585Z" fill="#fff"/><path fill-rule="evenodd" clip-rule="evenodd" d="M33.4 30.139c-.5-.52-3.337-.25-4.6-.116-.381.039-.453-.23-.095-.423 2.264-1.29 5.96-.904 6.388-.481.43.423-.119 3.424-2.24 4.848-.334.212-.644.097-.501-.192.477-.962 1.55-3.098 1.049-3.636Z" fill="#fff"/><defs><linearGradient id="a" x1="23.229" y1="0" x2="23.229" y2="46.4" gradientUnits="userSpaceOnUse"><stop stop-color="#fff"/><stop offset="1" stop-color="#E7F0FF"/></linearGradient></defs></svg>