<svg width="48" height="47" fill="none" xmlns="http://www.w3.org/2000/svg"><rect x="1.302" y=".362" width="45.518" height="45.675" rx="12.438" fill="#2E7AF5"/><rect x="1.302" y=".362" width="45.518" height="45.675" rx="12.438" stroke="url(#a)" stroke-width=".725"/><g clip-path="url(#b)" fill="#fff"><path d="m20.572 30.646-3.787-.004v-4.529c0-.967.375-1.47 1.203-1.586h2.584c1.843 0 3.035 1.162 3.035 3.043 0 1.931-1.162 3.074-3.035 3.076Zm-3.787-12.215V17.24c0-1.043.441-1.539 1.409-1.603h1.939c1.661 0 2.657.994 2.657 2.66 0 1.267-.682 2.748-2.597 2.748h-3.408V18.43Zm8.623 4.52-.684-.385.598-.511c.695-.599 1.861-1.943 1.861-4.263 0-3.554-2.756-5.846-7.02-5.846h-4.867v-.001h-.554a2.376 2.376 0 0 0-2.29 2.346v20.163h7.807c4.74 0 7.8-2.58 7.8-6.577 0-2.152-.989-3.991-2.65-4.927Zm4.684 8.718a2.78 2.78 0 0 1 2.773-2.787 2.786 2.786 0 0 1 0 5.573 2.78 2.78 0 0 1-2.773-2.786Z"/></g><defs><linearGradient id="a" x1="24.061" y1="0" x2="24.061" y2="46.4" gradientUnits="userSpaceOnUse"><stop stop-color="#fff"/><stop offset="1" stop-color="#E7F0FF"/></linearGradient><clipPath id="b"><path fill="#fff" transform="translate(12.06 11.2)" d="M0 0h24v24H0z"/></clipPath></defs></svg>