<svg width="47" height="47" fill="none" xmlns="http://www.w3.org/2000/svg"><rect x=".392" y=".362" width="45.675" height="45.675" rx="12.438" fill="#2E7AF5"/><rect x=".392" y=".362" width="45.675" height="45.675" rx="12.438" stroke="url(#a)" stroke-width=".725"/><g clip-path="url(#b)"><path d="M23.229 11.2c-6.628 0-12 5.373-12 12 0 5.628 3.874 10.35 9.1 11.647v-7.98h-2.474V23.2h2.475v-1.58c0-4.084 1.848-5.977 5.858-5.977.76 0 2.072.149 2.609.298v3.324c-.283-.03-.775-.045-1.386-.045-1.968 0-2.728.745-2.728 2.683V23.2h3.92l-.674 3.667h-3.246v8.245c5.942-.717 10.546-5.776 10.546-11.912 0-6.627-5.373-12-12-12Z" fill="#fff"/></g><defs><linearGradient id="a" x1="23.229" y1="0" x2="23.229" y2="46.4" gradientUnits="userSpaceOnUse"><stop stop-color="#fff"/><stop offset="1" stop-color="#E7F0FF"/></linearGradient><clipPath id="b"><path fill="#fff" transform="translate(11.229 11.2)" d="M0 0h24v24H0z"/></clipPath></defs></svg>