<svg width="47" height="47" fill="none" xmlns="http://www.w3.org/2000/svg"><rect x=".392" y=".362" width="45.675" height="45.675" rx="12.438" fill="#2E7AF5"/><rect x=".392" y=".362" width="45.675" height="45.675" rx="12.438" stroke="url(#a)" stroke-width=".725"/><g clip-path="url(#b)"><path d="M28.301 11.2h-4.045v16.348c0 1.948-1.555 3.548-3.491 3.548-1.936 0-3.492-1.6-3.492-3.548 0-1.913 1.521-3.478 3.388-3.548v-4.104c-4.114.07-7.433 3.443-7.433 7.652 0 4.243 3.388 7.652 7.571 7.652s7.571-3.444 7.571-7.652v-8.383a9.366 9.366 0 0 0 5.358 1.809v-4.105c-3.042-.104-5.427-2.608-5.427-5.669Z" fill="#fff"/></g><defs><linearGradient id="a" x1="23.229" y1="0" x2="23.229" y2="46.4" gradientUnits="userSpaceOnUse"><stop stop-color="#fff"/><stop offset="1" stop-color="#E7F0FF"/></linearGradient><clipPath id="b"><path fill="#fff" transform="translate(11.229 11.2)" d="M0 0h24v24H0z"/></clipPath></defs></svg>