<svg width="47" height="47" fill="none" xmlns="http://www.w3.org/2000/svg"><rect x=".392" y=".362" width="45.675" height="45.675" rx="12.438" fill="#2E7AF5"/><rect x=".392" y=".362" width="45.675" height="45.675" rx="12.438" stroke="url(#a)" stroke-width=".725"/><g clip-path="url(#b)" fill="#fff"><path d="M23.229 13.361c3.206 0 3.585.014 4.846.07 1.172.052 1.805.249 2.227.413.558.216.96.478 1.378.895.422.422.68.82.895 1.378.164.422.361 1.06.413 2.227.056 1.266.07 1.645.07 4.847 0 3.206-.014 3.586-.07 4.847-.052 1.172-.248 1.804-.413 2.226a3.71 3.71 0 0 1-.895 1.378 3.69 3.69 0 0 1-1.378.896c-.422.164-1.06.36-2.227.412-1.265.056-1.645.07-4.846.07-3.207 0-3.586-.014-4.847-.07-1.172-.051-1.805-.248-2.227-.412a3.71 3.71 0 0 1-1.378-.896 3.692 3.692 0 0 1-.895-1.378c-.164-.422-.361-1.06-.413-2.226-.056-1.266-.07-1.646-.07-4.847 0-3.206.014-3.586.07-4.847.052-1.172.249-1.805.413-2.227.215-.557.478-.96.895-1.378a3.68 3.68 0 0 1 1.378-.895c.422-.164 1.06-.361 2.227-.413 1.26-.056 1.64-.07 4.846-.07Zm0-2.16c-3.258 0-3.666.013-4.946.07-1.275.056-2.151.262-2.91.557a5.858 5.858 0 0 0-2.129 1.388 5.88 5.88 0 0 0-1.387 2.123c-.296.764-.502 1.636-.558 2.911-.056 1.285-.07 1.692-.07 4.95s.014 3.666.07 4.945c.056 1.276.262 2.152.558 2.911a5.854 5.854 0 0 0 1.387 2.129 5.867 5.867 0 0 0 2.124 1.382c.764.296 1.635.502 2.91.558 1.28.056 1.688.07 4.946.07s3.666-.014 4.945-.07c1.275-.056 2.152-.262 2.911-.558a5.866 5.866 0 0 0 2.123-1.382 5.867 5.867 0 0 0 1.383-2.124c.296-.764.502-1.636.558-2.91.056-1.28.07-1.688.07-4.946s-.014-3.666-.07-4.945c-.056-1.275-.262-2.152-.558-2.911a5.62 5.62 0 0 0-1.373-2.133 5.866 5.866 0 0 0-2.123-1.383c-.765-.295-1.637-.502-2.912-.558-1.284-.06-1.692-.075-4.95-.075Z"/><path d="M23.229 17.036a6.166 6.166 0 0 0-6.165 6.164 6.166 6.166 0 0 0 6.165 6.164 6.166 6.166 0 0 0 6.164-6.164 6.166 6.166 0 0 0-6.165-6.164Zm0 10.163a3.999 3.999 0 1 1 0-7.998 3.999 3.999 0 0 1 0 7.998Zm7.846-10.406a1.44 1.44 0 1 1-2.878-.001 1.44 1.44 0 0 1 2.878 0Z"/></g><defs><linearGradient id="a" x1="23.229" y1="0" x2="23.229" y2="46.4" gradientUnits="userSpaceOnUse"><stop stop-color="#fff"/><stop offset="1" stop-color="#E7F0FF"/></linearGradient><clipPath id="b"><path fill="#fff" transform="translate(11.229 11.2)" d="M0 0h24v24H0z"/></clipPath></defs></svg>