<svg width="47" height="47" fill="none" xmlns="http://www.w3.org/2000/svg"><rect x=".392" y=".362" width="45.675" height="45.675" rx="12.438" fill="#2E7AF5"/><rect x=".392" y=".362" width="45.675" height="45.675" rx="12.438" stroke="url(#a)" stroke-width=".725"/><path d="M23.752 35.147c-2.394 0-4.498-.489-6.312-1.467a10.753 10.753 0 0 1-4.215-4.129c-.996-1.775-1.495-3.829-1.495-6.162 0-2.474.491-4.619 1.473-6.435.996-1.817 2.379-3.221 4.148-4.213 1.77-.992 3.829-1.488 6.178-1.488 2.453 0 4.542.538 6.267 1.614 1.725 1.062 3.011 2.578 3.859 4.548.862 1.97 1.204 4.31 1.026 7.022h-4.662v-1.593c-.03-2.627-.565-4.57-1.606-5.827-1.026-1.258-2.594-1.887-4.706-1.887-2.334 0-4.089.692-5.263 2.075-1.175 1.384-1.762 3.382-1.762 5.995 0 2.487.587 4.416 1.762 5.785 1.174 1.355 2.87 2.033 5.085 2.033 1.457 0 2.713-.307 3.77-.922 1.07-.629 1.902-1.523 2.497-2.683l4.572 1.362c-.936 2.027-2.356 3.599-4.26 4.717-1.903 1.103-4.022 1.655-6.356 1.655Zm-8.587-10.71V21.02h17.196v3.417H15.165Z" fill="#fff"/><defs><linearGradient id="a" x1="23.229" y1="0" x2="23.229" y2="46.4" gradientUnits="userSpaceOnUse"><stop stop-color="#fff"/><stop offset="1" stop-color="#E7F0FF"/></linearGradient></defs></svg>