<svg width="47" height="47" fill="none" xmlns="http://www.w3.org/2000/svg"><rect x=".392" y=".362" width="45.675" height="45.675" rx="12.438" fill="#2E7AF5"/><rect x=".392" y=".362" width="45.675" height="45.675" rx="12.438" stroke="url(#a)" stroke-width=".725"/><g clip-path="url(#b)" fill="#fff"><path d="M23.23 21.019v4.647h6.458c-.284 1.494-1.135 2.76-2.411 3.61L31.17 32.3c2.27-2.095 3.578-5.171 3.578-8.826 0-.85-.076-1.669-.218-2.454h-11.3Z"/><path d="m16.504 25.484-.878.673-3.11 2.421c1.975 3.917 6.022 6.622 10.713 6.622 3.24 0 5.956-1.069 7.942-2.901l-3.895-3.022c-1.069.72-2.433 1.156-4.047 1.156-3.12 0-5.77-2.105-6.72-4.942l-.005-.007Z"/><path d="M12.517 17.822A11.851 11.851 0 0 0 11.23 23.2c0 1.942.468 3.764 1.287 5.378 0 .01 3.992-3.098 3.992-3.098a7.19 7.19 0 0 1-.381-2.28c0-.797.142-1.56.381-2.28l-3.992-3.098Z"/><path d="M23.23 15.978c1.767 0 3.337.611 4.592 1.79l3.436-3.437c-2.083-1.942-4.789-3.13-8.029-3.13-4.69 0-8.738 2.694-10.712 6.621l3.992 3.098c.95-2.836 3.6-4.942 6.72-4.942Z"/></g><defs><linearGradient id="a" x1="23.229" y1="0" x2="23.229" y2="46.4" gradientUnits="userSpaceOnUse"><stop stop-color="#fff"/><stop offset="1" stop-color="#E7F0FF"/></linearGradient><clipPath id="b"><path fill="#fff" transform="translate(11.23 11.2)" d="M0 0h24v24H0z"/></clipPath></defs></svg>