<svg width="47" height="47" fill="none" xmlns="http://www.w3.org/2000/svg"><rect x=".392" y=".362" width="45.675" height="45.675" rx="12.438" fill="#2E7AF5"/><rect x=".392" y=".362" width="45.675" height="45.675" rx="12.438" stroke="url(#a)" stroke-width=".725"/><g clip-path="url(#b)"><path d="M33.452 11.2H13c-.98 0-1.771.773-1.771 1.73v20.536c0 .956.792 1.734 1.771 1.734h20.452c.98 0 1.776-.778 1.776-1.73V12.93c0-.957-.796-1.73-1.776-1.73ZM18.349 31.651h-3.563V20.195h3.563v11.456Zm-1.781-13.017a2.063 2.063 0 1 1 0-4.125 2.063 2.063 0 0 1 0 4.125ZM31.68 31.651h-3.558v-5.568c0-1.327-.023-3.038-1.851-3.038-1.852 0-2.133 1.449-2.133 2.944v5.662h-3.553V20.195h3.412v1.566h.047c.474-.9 1.636-1.852 3.366-1.852 3.605 0 4.27 2.372 4.27 5.457v6.285Z" fill="#fff"/></g><defs><linearGradient id="a" x1="23.229" y1="0" x2="23.229" y2="46.4" gradientUnits="userSpaceOnUse"><stop stop-color="#fff"/><stop offset="1" stop-color="#E7F0FF"/></linearGradient><clipPath id="b"><path fill="#fff" transform="translate(11.229 11.2)" d="M0 0h24v24H0z"/></clipPath></defs></svg>